<svg width="32" height="31" viewBox="0 0 32 31" fill="none" xmlns="http://www.w3.org/2000/svg">
<path fill-rule="evenodd" clip-rule="evenodd" d="M10.4303 19.5409L10.388 19.5577C9.49556 19.8992 8.44187 19.9742 7.55108 19.5791C5.5715 18.7009 5.02091 16.1682 5.04086 14.2776C5.0447 13.9169 5.06324 13.3743 5.12348 13.0254C5.57153 12.9225 6.47429 12.9048 6.94871 12.914C9.53414 12.9639 12.0924 13.7692 12.2863 16.646C12.3778 18.0036 11.732 19.0152 10.4303 19.5409V19.5409Z" fill="#7FA91F"/>
<path fill-rule="evenodd" clip-rule="evenodd" d="M16.0656 23.9228L16.1617 23.9339C18.1847 24.1418 20.3711 23.6707 21.937 22.2706C25.4169 19.1595 24.9753 13.2959 23.7704 9.17872C23.5405 8.39308 23.1687 7.21931 22.8314 6.4936C21.8581 6.53891 20.0135 7.0443 19.0555 7.35033C13.8351 9.01779 9.13505 12.3185 10.5129 18.7186C11.1632 21.739 13.098 23.5591 16.0656 23.9228V23.9228Z" fill="#FEFEFE" stroke="#2B2A29" stroke-width="0.7056" stroke-miterlimit="22.9256"/>
<path d="M21.5164 9.04707L19.4747 12.2936L14.4122 20.3433" stroke="#2B2A29" stroke-width="0.7056" stroke-miterlimit="22.9256"/>
<path d="M18.7672 9.88322L19.4792 12.3728" stroke="#2B2A29" stroke-width="0.7056" stroke-miterlimit="22.9256"/>
<path d="M21.4818 14.6779L18.0551 14.5857" stroke="#2B2A29" stroke-width="0.7056" stroke-miterlimit="22.9256"/>
<path d="M15.741 14.1246L16.1861 17.4901" stroke="#2B2A29" stroke-width="0.7056" stroke-miterlimit="22.9256"/>
<path d="M1.59924 15.5296C1.59729 7.24919 8.13459 0.535159 16.2007 0.533442C24.2668 0.531725 30.8073 7.24295 30.8092 15.5234" stroke="#2B2A29" stroke-width="0.7056" stroke-miterlimit="22.9256"/>
<path d="M0.908817 17.1711C0.901827 17.0702 0.896037 16.9691 0.891357 16.868C1.39341 16.847 1.89543 16.8259 2.39745 16.8049C2.32878 16.7296 2.27241 16.6387 2.22522 16.5499C2.17554 16.4564 2.13069 16.3578 2.0997 16.2571C2.17593 16.2571 2.25216 16.2571 2.32842 16.2571C2.38545 16.3996 2.46102 16.5347 2.5611 16.654C2.6334 16.7403 2.72436 16.8301 2.82867 16.8808C2.83173 16.9372 2.83518 16.9935 2.83908 17.0498C2.19567 17.0902 1.55223 17.1307 0.908817 17.1711V17.1711ZM1.92849 17.832C2.10618 17.8112 2.31018 17.8039 2.48496 17.8469C2.61942 17.8799 2.74074 17.9394 2.83713 18.036C2.9361 18.1352 2.98743 18.2612 3.01275 18.3943C3.03177 18.4941 3.03543 18.5969 3.0108 18.6962C2.98824 18.787 2.94537 18.8681 2.8815 18.9389C2.81145 19.0165 2.72643 19.0775 2.63397 19.1288C2.50605 19.1999 2.34666 19.2454 2.2035 19.2784C2.02944 19.3185 1.82874 19.3481 1.65042 19.3192C1.50597 19.2958 1.38021 19.2379 1.27755 19.1373C1.16496 19.0269 1.1061 18.8789 1.07769 18.7295C1.04028 18.5331 1.05585 18.325 1.18209 18.1588C1.34772 17.9408 1.66323 17.863 1.92849 17.832V17.832ZM1.96743 18.1156C1.78935 18.1403 1.48323 18.1945 1.3635 18.3374C1.2753 18.4427 1.24302 18.5639 1.26828 18.6965C1.29348 18.8289 1.36836 18.9313 1.48992 18.9995C1.65471 19.0919 1.96095 19.04 2.13636 19.0035C2.30895 18.9676 2.61063 18.8926 2.7267 18.7544C2.80875 18.6568 2.84253 18.5489 2.81895 18.4248C2.79735 18.3113 2.73723 18.2202 2.63214 18.1611C2.46021 18.0644 2.15595 18.0895 1.96743 18.1156V18.1156ZM2.27607 19.5517C2.44896 19.508 2.64981 19.4738 2.82903 19.4925C2.96595 19.5067 3.09456 19.5483 3.20373 19.6299C3.31518 19.7133 3.3834 19.8291 3.42681 19.9559C3.45933 20.0509 3.477 20.1511 3.46623 20.2511C3.4563 20.3431 3.4248 20.4281 3.37146 20.5054C3.31263 20.5907 3.2367 20.6616 3.1524 20.7239C3.03534 20.8103 2.8839 20.8757 2.74671 20.9267C2.58 20.9888 2.38548 21.0441 2.20485 21.0393C2.05938 21.0354 1.92681 20.9956 1.81098 20.9104C1.68474 20.8176 1.60611 20.681 1.55733 20.5386C1.49313 20.3512 1.48047 20.1466 1.58223 19.9686C1.71648 19.7338 2.01936 19.6166 2.27607 19.5517V19.5517ZM2.35371 19.8226C2.18169 19.8699 1.88538 19.9632 1.78641 20.1185C1.71372 20.2325 1.69794 20.3542 1.74147 20.4813C1.78479 20.6077 1.87341 20.6974 2.00235 20.7478C2.1783 20.8165 2.47476 20.7252 2.64276 20.6666C2.80809 20.609 3.0969 20.496 3.19302 20.3454C3.26055 20.2396 3.27981 20.1302 3.23913 20.0113C3.20202 19.9028 3.12966 19.8224 3.01803 19.7789C2.83428 19.7073 2.53596 19.7724 2.35371 19.8226V19.8226ZM3.34911 21.0409C3.46875 20.993 3.59211 20.9804 3.71775 21.0143C3.72855 21.0172 3.77256 21.031 3.7797 21.0364C3.88551 21.0897 3.939 21.1577 3.9906 21.2589C4.04562 21.3721 4.06185 21.4884 4.02363 21.6089C3.98184 21.7408 3.8721 21.83 3.7473 21.8908C3.6204 21.9527 3.48246 21.9805 3.34605 21.9287C3.21729 21.88 3.12717 21.7887 3.06939 21.6699C3.01788 21.5582 3.00159 21.4683 3.02871 21.3481C3.02901 21.3423 3.03912 21.3147 3.04173 21.3077C3.09183 21.1748 3.21798 21.0935 3.34911 21.0409V21.0409ZM3.84501 21.3315C3.81636 21.2727 3.77019 21.2336 3.70542 21.2139C3.62004 21.1878 3.5007 21.2289 3.42291 21.2617C3.34629 21.294 3.24831 21.346 3.21507 21.4242C3.18867 21.4863 3.19083 21.5476 3.22035 21.6083C3.25014 21.6695 3.29778 21.7123 3.3657 21.7325C3.45204 21.7582 3.56886 21.713 3.6456 21.6773C3.72027 21.6426 3.81738 21.5866 3.84978 21.5093C3.87504 21.4491 3.87369 21.3904 3.84501 21.3315V21.3315ZM2.15478 22.0824C2.94591 22.2095 3.74748 22.2762 4.54983 22.2782C4.58679 22.3384 4.62432 22.3983 4.66236 22.4579C3.861 22.4701 3.0588 22.4179 2.26608 22.3057C2.22828 22.2316 2.1912 22.1571 2.15478 22.0824ZM3.11007 22.771C3.22623 22.709 3.34941 22.6878 3.48006 22.7148C3.62139 22.7439 3.72033 22.8374 3.79335 22.952C3.86505 23.0644 3.90135 23.1856 3.88107 23.3174C3.85962 23.4568 3.76449 23.5592 3.64476 23.6347C3.52293 23.7115 3.38844 23.7495 3.24504 23.7072C3.10503 23.6659 3.00069 23.5756 2.92539 23.4576C2.85162 23.3419 2.81643 23.2149 2.84325 23.0802C2.87178 22.937 2.98167 22.8395 3.11007 22.771V22.771ZM3.65748 23.0401C3.6201 22.9815 3.56823 22.9427 3.49785 22.9269C3.40866 22.9067 3.29526 22.9593 3.22053 23.0009C3.14601 23.0425 3.05847 23.1045 3.03603 23.1887C3.01782 23.2571 3.03009 23.3205 3.06837 23.3805C3.10719 23.4413 3.1611 23.4836 3.23463 23.4996C3.32505 23.5194 3.43536 23.4636 3.50898 23.419C3.58104 23.3753 3.66855 23.3096 3.68949 23.2262C3.70626 23.1593 3.69483 23.0986 3.65748 23.0401ZM4.14738 24.9924C4.64544 24.6058 5.1435 24.2192 5.64156 23.8325C5.70441 23.9062 5.76816 23.9792 5.83278 24.0515C5.69571 24.6557 5.6058 25.2694 5.56029 25.886C5.91342 25.543 6.26658 25.1999 6.61971 24.8568C6.62928 24.8658 6.6624 24.8941 6.66807 24.9019C6.71838 24.9485 6.76902 24.9946 6.82002 25.0406C6.37992 25.4866 5.93979 25.9327 5.49969 26.3787C5.44113 26.3261 5.38317 26.2731 5.32545 26.2197C5.30157 26.1976 5.27772 26.1754 5.25402 26.153C5.29206 25.5286 5.37453 24.9065 5.50449 24.2934C5.12049 24.6048 4.73649 24.9163 4.35249 25.2277C4.28322 25.15 4.21485 25.0715 4.14738 24.9924V24.9924ZM5.70681 26.5612C6.3672 26.3155 7.01304 26.0343 7.63962 25.718C7.72272 25.7812 7.80662 25.8435 7.89128 25.9047C7.73831 26.5735 7.62959 27.2512 7.56377 27.9328C7.45808 27.8665 7.3533 27.799 7.24938 27.7303C7.2804 27.5257 7.31511 27.3217 7.35363 27.1183C7.07898 26.9291 6.8112 26.7307 6.55104 26.5237C6.35883 26.6133 6.16509 26.7 5.96991 26.7836C5.88132 26.7104 5.7936 26.6363 5.70681 26.5612V26.5612ZM6.75486 26.4282C6.96351 26.5921 7.17704 26.7503 7.39505 26.9027C7.4333 26.7196 7.47465 26.5371 7.51902 26.3553C7.55211 26.2217 7.58958 26.0871 7.63587 25.957C7.53456 26.0336 7.42323 26.104 7.30899 26.1619C7.1268 26.2541 6.94056 26.3426 6.75486 26.4282V26.4282ZM8.11035 28.2598C8.40126 27.7958 8.6922 27.3317 8.98311 26.8677C8.77176 26.7471 8.56383 26.621 8.35971 26.4896C8.40186 26.43 8.44398 26.3704 8.48613 26.3109C8.96982 26.6223 9.47495 26.9032 9.99725 27.1514C9.96365 27.2157 9.93009 27.28 9.89649 27.3443C9.67476 27.239 9.45606 27.1278 9.24069 27.011C8.96055 27.481 8.6804 27.9511 8.40026 28.4211C8.303 28.3684 8.20635 28.3146 8.11035 28.2598ZM11.598 27.7918C11.6883 27.8215 11.779 27.8504 11.87 27.8782C11.7567 28.2151 11.6433 28.5519 11.5299 28.8887C11.4841 29.0245 11.4157 29.1794 11.3106 29.2836C11.2123 29.3811 11.0761 29.4271 10.938 29.4429C10.7466 29.4649 10.5402 29.415 10.3631 29.3487C10.2825 29.3182 10.2103 29.2866 10.1345 29.2463C10.0312 29.1903 9.95099 29.1373 9.86705 29.0566C9.76559 28.9566 9.69378 28.8376 9.68487 28.6963C9.67518 28.5429 9.73646 28.3778 9.80378 28.241C9.96137 27.9207 10.1189 27.6005 10.2765 27.2802C10.3658 27.3202 10.4555 27.3592 10.5457 27.3973C10.3956 27.7207 10.2456 28.0441 10.0955 28.3674C10.0498 28.4659 9.99458 28.6037 10.0008 28.7132C10.0061 28.8071 10.0515 28.8849 10.1185 28.9519C10.1524 28.9852 10.1846 29.0109 10.2245 29.0374C10.252 29.0645 10.3805 29.1208 10.4208 29.1359C10.5695 29.1919 10.778 29.2472 10.9348 29.1901C11.0932 29.1323 11.1841 28.9363 11.2353 28.7947C11.3562 28.4604 11.4771 28.1261 11.598 27.7918ZM11.8124 29.7807C11.9865 29.1911 12.1606 28.6014 12.3347 28.0118C12.6457 28.0954 12.9598 28.1682 13.2762 28.2303C13.4136 28.2572 13.5838 28.2946 13.7079 28.3582C13.8029 28.407 13.8753 28.4765 13.9241 28.5684C13.9723 28.6589 13.9903 28.7548 13.975 28.8554C13.9548 28.9878 13.8827 29.088 13.7642 29.1586C13.6145 29.2477 13.4088 29.2565 13.2379 29.2436C13.2951 29.2778 13.3607 29.3201 13.4075 29.3668C13.4911 29.4502 13.5655 29.5505 13.6256 29.6504C13.7386 29.838 13.8546 30.0226 13.9763 30.2052C13.8378 30.1877 13.6994 30.1685 13.5614 30.1475C13.4728 30.0057 13.387 29.8623 13.3038 29.7175C13.2478 29.6202 13.1898 29.52 13.126 29.4271C13.0902 29.3751 13.0446 29.3159 12.9938 29.2761C12.9564 29.2469 12.9092 29.2178 12.8645 29.1998C12.8159 29.1804 12.7481 29.1663 12.6966 29.1549C12.5793 29.1289 12.4622 29.1015 12.3456 29.0727C12.2742 29.3361 12.2028 29.5995 12.1314 29.8629C12.0247 29.8366 11.9184 29.8092 11.8124 29.7807V29.7807ZM12.4008 28.8689C12.6142 28.9216 12.8288 28.9695 13.0444 29.0127C13.1483 29.0335 13.2698 29.0511 13.376 29.04C13.4499 29.0323 13.5184 29.0104 13.5739 28.9617C13.6216 28.9198 13.6526 28.8706 13.6634 28.8092C13.6791 28.7204 13.6501 28.6441 13.5867 28.5787C13.5046 28.4939 13.3604 28.4536 13.2457 28.4312C13.016 28.3864 12.7875 28.336 12.5605 28.28C12.5073 28.4763 12.454 28.6726 12.4008 28.8689V28.8689ZM14.0181 30.2104C14.4186 29.649 14.7876 29.0672 15.1216 28.4675C15.2313 28.4743 15.341 28.48 15.4507 28.4844C15.6313 28.8823 15.8207 29.2602 16.0314 29.6444C16.1597 29.8759 16.2914 30.1023 16.429 30.3289C16.2984 30.332 16.1676 30.3336 16.0369 30.3336C16.0357 30.3316 16.0326 30.325 16.0314 30.3236C15.9331 30.1414 15.8384 29.9592 15.7463 29.7741C15.3974 29.7679 15.0487 29.7503 14.701 29.721C14.5947 29.8991 14.4856 30.0755 14.3735 30.2503C14.2549 30.2383 14.1364 30.225 14.0181 30.2104V30.2104ZM14.8136 29.5318C15.0912 29.5534 15.3694 29.5676 15.6479 29.5744C15.567 29.4032 15.489 29.2307 15.414 29.057C15.3594 28.9293 15.3077 28.7983 15.2664 28.666C15.228 28.7842 15.1772 28.9026 15.1165 29.012C15.0196 29.1867 14.9171 29.3605 14.8136 29.5318V29.5318ZM16.6867 30.3207C16.6601 29.7087 16.6335 29.0966 16.6069 28.4846C16.707 28.4806 16.807 28.4756 16.9071 28.4696C16.9429 29.0092 16.9787 29.5488 17.0145 30.0885C17.4266 30.0636 17.8376 30.0229 18.2462 29.9664C18.257 30.0376 18.2678 30.1087 18.2786 30.1798C17.7509 30.2527 17.2194 30.2996 16.6867 30.3207V30.3207ZM19.0445 30.0552C19.234 29.4035 19.3841 28.7414 19.4923 28.073C19.5945 28.0474 19.6963 28.0207 19.7977 27.9929C20.2642 28.5101 20.7627 29.0008 21.2885 29.4633C21.1719 29.5034 21.0548 29.5421 20.9373 29.5794C20.7859 29.4325 20.637 29.2832 20.4907 29.1316C20.1699 29.2272 19.8456 29.3124 19.5187 29.3869C19.4792 29.5875 19.4362 29.7874 19.3897 29.9866C19.2749 30.0108 19.1598 30.0336 19.0445 30.0552V30.0552ZM19.5602 29.174C19.8207 29.113 20.0793 29.0451 20.3359 28.9704C20.2061 28.8312 20.0785 28.69 19.9532 28.5471C19.8613 28.4416 19.7712 28.3323 19.69 28.2191C19.6939 28.3423 19.6866 28.4694 19.6671 28.5913C19.636 28.7857 19.5991 28.9809 19.5602 29.174ZM21.5278 29.379C21.3001 28.8062 21.0725 28.2334 20.8449 27.6606C20.9359 27.6277 21.0265 27.5938 21.1168 27.559C21.1541 27.5807 21.1915 27.6021 21.229 27.6235C21.772 27.9145 22.2897 28.154 22.8647 28.3824C22.6357 27.9541 22.4068 27.5258 22.1778 27.0974C22.2615 27.0567 22.3448 27.0151 22.4276 26.9727C22.7313 27.5124 23.035 28.0521 23.3388 28.5918C23.2374 28.6437 23.1354 28.6946 23.0328 28.7443C22.4589 28.5239 21.9403 28.2927 21.3962 28.0115C21.3487 27.9853 21.3013 27.9591 21.2539 27.9324C21.4422 28.3785 21.6304 28.8245 21.8187 29.2705C21.7221 29.3076 21.6251 29.3437 21.5278 29.379V29.379ZM23.83 28.329C23.5055 27.8004 23.1811 27.2717 22.8567 26.7431C23.0752 26.621 23.2901 26.493 23.501 26.3593C23.6057 26.2928 23.7245 26.2177 23.8396 26.1692C23.949 26.1231 24.0631 26.0946 24.1831 26.0939C24.3295 26.093 24.4647 26.1243 24.5938 26.1903C24.7337 26.2617 24.85 26.3629 24.9477 26.4813C25.0291 26.58 25.0984 26.6901 25.1377 26.8105C25.1699 26.9096 25.1878 27.0156 25.1773 27.1194C25.1681 27.2113 25.1441 27.2989 25.1012 27.3819C25.0547 27.4717 24.9893 27.5515 24.9164 27.6233C24.8227 27.7156 24.7136 27.7965 24.6018 27.8678C24.3494 28.0289 24.0919 28.1827 23.83 28.329V28.329ZM23.999 27.9807C24.1495 27.8924 24.2983 27.8016 24.4453 27.7082C24.5475 27.6434 24.6623 27.5629 24.7424 27.4735C24.7941 27.4157 24.842 27.3472 24.864 27.2734C24.8922 27.1785 24.888 27.0801 24.8626 26.9851C24.8317 26.8689 24.7652 26.7604 24.6903 26.6652C24.596 26.5455 24.4699 26.424 24.317 26.3768C24.1998 26.3406 24.0796 26.3315 23.9606 26.3657C23.8509 26.3973 23.7174 26.481 23.6222 26.5413C23.4917 26.624 23.3597 26.7045 23.2263 26.7829C23.4838 27.1821 23.7414 27.5814 23.999 27.9807V27.9807ZM27.1363 25.8357C26.7359 25.7195 26.3497 25.5946 25.9578 25.4546C25.6808 25.3531 25.4098 25.2471 25.1379 25.1337C25.2146 25.0663 25.2905 24.998 25.3655 24.9289C25.3986 24.9429 25.4317 24.9568 25.4648 24.9707C25.9028 25.1503 26.3335 25.3103 26.7835 25.4608C26.8905 25.4965 26.9975 25.534 27.1015 25.5771C27.0494 25.48 27.0031 25.3813 26.9598 25.2803C26.767 24.8307 26.55 24.3851 26.3172 23.953C26.3805 23.8806 26.443 23.8075 26.5046 23.7338C26.8331 24.3362 27.1225 24.9578 27.373 25.5933C27.2951 25.675 27.2162 25.7557 27.1363 25.8357V25.8357ZM28.2006 24.6473C27.6902 24.2756 27.1798 23.9039 26.6695 23.5322C26.9903 23.1313 27.2852 22.7117 27.5517 22.276C27.6168 22.3122 27.6818 22.3485 27.7469 22.3847C27.5255 22.7465 27.2849 23.0976 27.0263 23.4363C27.1858 23.5471 27.3453 23.6579 27.5048 23.7687C27.7578 23.4373 27.9944 23.0946 28.2134 22.7418C28.2782 22.7785 28.343 22.8151 28.4079 22.8517C28.1852 23.2103 27.9447 23.5587 27.6875 23.8956C27.8644 24.0185 28.0412 24.1414 28.2181 24.2643C28.5176 23.8721 28.7955 23.4649 29.05 23.0448C29.1152 23.0808 29.1804 23.1167 29.2457 23.1527C28.9312 23.6716 28.5818 24.171 28.2006 24.6473V24.6473ZM29.2965 21.4587C29.2274 21.43 29.1583 21.4013 29.0893 21.3727C29.0894 21.3724 29.0898 21.3715 29.0899 21.3713C29.2204 21.083 29.3372 20.7994 29.4471 20.5033C29.6716 20.5785 29.8962 20.6537 30.1207 20.7289C30.1609 20.8986 30.1756 21.0726 30.1597 21.2461C30.1441 21.4163 30.0997 21.5819 30.0285 21.7386C30.0269 21.7422 30.0205 21.7547 30.0199 21.7574C29.9172 21.969 29.8131 22.1184 29.6338 22.2779C29.487 22.4044 29.3145 22.4924 29.1155 22.5101C28.9299 22.5266 28.7561 22.4876 28.593 22.403C28.4288 22.3177 28.2974 22.1974 28.1975 22.0469C28.0976 21.8963 28.0511 21.7328 28.0552 21.5549C28.0596 21.3623 28.1128 21.1785 28.193 21.0026C28.1933 21.002 28.1941 20.9999 28.1944 20.9996C28.2568 20.8668 28.3177 20.7671 28.4172 20.6563C28.4956 20.5715 28.5888 20.4968 28.6998 20.4544C28.8117 20.4115 28.9342 20.4003 29.0538 20.4059C29.0436 20.4933 29.0324 20.5805 29.0203 20.6676C28.935 20.6656 28.8403 20.672 28.7595 20.7C28.6809 20.7272 28.6128 20.7807 28.5568 20.8388C28.4835 20.9169 28.4392 20.9871 28.3942 21.0825C28.3942 21.0828 28.3936 21.0839 28.3934 21.0842C28.3464 21.1872 28.3086 21.2985 28.2974 21.4107C28.2886 21.499 28.2922 21.5904 28.3198 21.6756C28.3432 21.748 28.3784 21.8187 28.4263 21.8793C28.5073 21.982 28.6121 22.0645 28.7319 22.1232C28.8654 22.1886 29.0158 22.2318 29.1672 22.2163C29.3124 22.2015 29.439 22.1364 29.5439 22.0412C29.6673 21.9255 29.7413 21.8216 29.8127 21.6714C29.813 21.671 29.8137 21.6693 29.8139 21.6688C29.8693 21.5474 29.9029 21.4173 29.9125 21.2853C29.9197 21.1859 29.9208 21.0674 29.8935 20.9706C29.7809 20.9302 29.6683 20.8897 29.5557 20.8492C29.4741 21.0548 29.3887 21.2556 29.2971 21.4573C29.2971 21.4576 29.2966 21.4584 29.2965 21.4587ZM30.4429 20.6211C29.9414 20.1441 29.4108 19.695 28.8532 19.2783C28.88 19.1808 28.9054 19.083 28.9295 18.985C29.6329 18.848 30.3261 18.6654 31.0041 18.4405C30.984 18.5605 30.9622 18.6803 30.9387 18.7999C30.7303 18.857 30.5208 18.9105 30.3103 18.9601C30.2411 19.2764 30.1597 19.5903 30.0662 19.9009C30.2299 20.0322 30.3912 20.1662 30.55 20.3027C30.5157 20.4093 30.48 20.5154 30.4429 20.6211V20.6211ZM29.8922 19.7618C29.965 19.5138 30.0299 19.2637 30.087 19.012C29.8962 19.0533 29.7046 19.0914 29.5124 19.1264C29.371 19.1517 29.2269 19.1734 29.0835 19.1856C29.1981 19.2427 29.3107 19.3111 29.4125 19.3871C29.5748 19.5083 29.735 19.6347 29.8922 19.7618V19.7618ZM31.0435 18.1915C30.4076 18.1058 29.7718 18.0202 29.136 17.9345C29.1501 17.8397 29.1629 17.7448 29.1745 17.6497C29.7348 17.3293 30.2671 16.9653 30.7675 16.5647C30.2636 16.5538 29.7597 16.5429 29.2558 16.532C29.258 16.4404 29.2591 16.3487 29.2591 16.2571C29.9012 16.2571 30.5434 16.2571 31.1855 16.2571C31.1855 16.3699 31.1841 16.4829 31.1812 16.5957C30.6799 17.0072 30.1462 17.3827 29.5837 17.7148C30.0842 17.7712 30.5847 17.8277 31.0852 17.8842C31.0725 17.9868 31.0586 18.0892 31.0435 18.1915V18.1915Z" fill="#2B2A29"/>
</svg>
