<svg width="92" height="91" viewBox="0 0 92 91" fill="none" xmlns="http://www.w3.org/2000/svg">
<path d="M23.6917 82.3841L24.1932 82.9855C23.7311 83.4239 23.2486 83.662 22.7445 83.7023C22.2402 83.7426 21.7507 83.5916 21.2763 83.2481C20.786 82.8929 20.4547 82.4972 20.2828 82.0599C20.1102 81.6239 20.0732 81.145 20.1696 80.6239C20.2668 80.1018 20.4617 79.6091 20.7565 79.144C21.0779 78.637 21.4486 78.26 21.8697 78.0138C22.2905 77.7673 22.7304 77.6672 23.1891 77.7132C23.6478 77.759 24.0781 77.9282 24.4792 78.2189C24.9354 78.5494 25.2401 78.9506 25.3926 79.4232C25.546 79.897 25.5417 80.4019 25.3789 80.9396L24.6919 80.6603C24.8111 80.2303 24.8211 79.8603 24.7227 79.554C24.6252 79.2464 24.4236 78.9831 24.119 78.7623C23.7698 78.5093 23.4202 78.3869 23.0719 78.3962C22.7238 78.4056 22.405 78.5273 22.1193 78.7605C21.8318 78.9942 21.5862 79.2717 21.3826 79.5925C21.1201 80.0067 20.947 80.4092 20.8638 80.7992C20.78 81.1902 20.8091 81.5474 20.9498 81.8727C21.0904 82.198 21.299 82.46 21.5761 82.6608C21.9135 82.9052 22.264 83.0068 22.6292 82.9683C22.9948 82.9288 23.3487 82.7346 23.6917 82.3841ZM24.1902 84.4085L26.8124 79.2319L28.9588 80.4742C29.3906 80.724 29.695 80.9609 29.8722 81.1834C30.0497 81.406 30.1458 81.6735 30.161 81.9863C30.176 82.2988 30.1107 82.5976 29.9667 82.882C29.7806 83.2494 29.5121 83.4946 29.1625 83.6178C28.8127 83.7411 28.3895 83.7018 27.8903 83.5019C28.0165 83.687 28.1011 83.8482 28.1464 83.9834C28.2408 84.2748 28.3011 84.6074 28.327 84.9792L28.4504 86.8738L27.65 86.4105L27.5555 84.9628C27.5277 84.5432 27.4932 84.2163 27.4562 83.9813C27.4181 83.746 27.368 83.5687 27.3058 83.447C27.244 83.3274 27.1691 83.2247 27.0833 83.1407C27.0191 83.0833 26.9048 83.0063 26.7392 82.9104L25.9975 82.4811L24.8329 84.7803L24.1902 84.4085ZM26.2976 81.8883L27.6729 82.6844C27.9663 82.8539 28.2104 82.9533 28.4081 82.9834C28.6049 83.0149 28.7825 82.9834 28.9398 82.889C29.0974 82.7965 29.2185 82.667 29.3033 82.4996C29.4271 82.2549 29.4472 82.005 29.3617 81.751C29.2759 81.4975 29.054 81.2677 28.6965 81.061L27.1656 80.1749L26.2976 81.8883ZM34.4043 82.6987L35.0924 82.9618L34.0216 86.1627C33.835 86.7201 33.6277 87.14 33.4011 87.4229C33.1735 87.7042 32.8718 87.8899 32.4965 87.978C32.1202 88.0654 31.6835 88.0149 31.1837 87.8241C30.6997 87.639 30.3324 87.3982 30.0844 87.101C29.8356 86.8036 29.7023 86.4617 29.6841 86.0722C29.6661 85.6825 29.7547 85.1939 29.9511 84.6069L31.0219 81.406L31.71 81.6689L30.6396 84.8687C30.4785 85.3499 30.4017 85.7223 30.409 85.981C30.4158 86.2412 30.499 86.4724 30.6621 86.6731C30.8234 86.8743 31.0515 87.0314 31.3448 87.1434C31.847 87.3353 32.2464 87.3499 32.5417 87.1876C32.8373 87.0241 33.1007 86.5951 33.3337 85.8985L34.4043 82.6987ZM34.356 89.0214L35.6609 83.3024L39.5242 84.3094L39.3713 84.9805L36.2176 84.1584L35.8166 85.9157L38.7686 86.685L38.6154 87.3558L35.6637 86.5865L35.2189 88.5355L38.4996 89.3906L38.3466 90.0614L34.356 89.0214ZM39.2987 90.2626L40.0311 84.4285L40.7553 84.5325L40.109 89.6821L42.7924 90.0669L42.7066 90.7514L39.2987 90.2626ZM44.4413 90.9795L44.5701 85.7852L42.7556 85.7337L42.7729 85.0434L47.1324 85.1672L47.1153 85.8575L45.3008 85.806L45.1718 91L44.4413 90.9795ZM49.2861 90.903L49.0985 88.4172L46.7274 85.2179L47.6014 85.1427L48.8201 86.8247C49.0469 87.1364 49.2596 87.4494 49.4558 87.7638C49.6 87.4419 49.7771 87.0802 49.9846 86.6775L50.9175 84.857L51.7645 84.7839L49.827 88.3545L50.0146 90.8401L49.2861 90.903ZM54.8131 90.0229L53.5061 84.3047L57.1151 83.3622L57.2685 84.033L54.3692 84.7902L54.7763 86.5712L57.2871 85.9157L57.4403 86.5865L54.9298 87.242L55.523 89.8375L54.8131 90.0229ZM59.3173 88.7307L57.4604 83.1891L59.7585 82.3095C60.2206 82.1324 60.5888 82.0485 60.862 82.0557C61.1357 82.0633 61.3862 82.1652 61.6143 82.3618C61.8422 82.5583 62.0067 82.8097 62.1087 83.1142C62.2405 83.5076 62.2322 83.8848 62.0848 84.2455C61.9372 84.6061 61.6274 84.9168 61.1547 85.1807C61.368 85.2038 61.5368 85.2441 61.6614 85.2982C61.9271 85.4175 62.1992 85.5915 62.4757 85.819L63.8781 86.9851L63.0213 87.3129L61.9493 86.4222C61.6383 86.1643 61.3877 85.9734 61.1994 85.8463C61.0099 85.7194 60.8528 85.6411 60.7266 85.6094C60.6019 85.5785 60.4803 85.5696 60.3646 85.5821C60.2818 85.5949 60.1521 85.6344 59.9746 85.7022L59.1804 86.0062L60.0049 88.4673L59.3173 88.7307ZM58.9677 85.3715L60.4401 84.8078C60.754 84.6877 60.9861 84.5595 61.1391 84.4225C61.2923 84.2868 61.3892 84.1246 61.4284 83.9363C61.469 83.7491 61.4596 83.5663 61.3995 83.3869C61.3118 83.1251 61.1511 82.9421 60.917 82.8412C60.683 82.7401 60.3749 82.7635 59.9921 82.9098L58.3532 83.537L58.9677 85.3715ZM64.5403 86.6141L62.1635 81.3041L65.7509 79.4698L66.0299 80.0927L63.1017 81.5898L63.8319 83.2216L66.5727 81.8199L66.8517 82.4431L64.1107 83.8445L64.9207 85.6541L67.9668 84.0965L68.2458 84.7194L64.5403 86.6141ZM69.0871 84.0635L65.9954 79.1921L69.2862 76.8061L69.6491 77.3776L66.9627 79.3252L67.9129 80.822L70.4273 78.9989L70.7899 79.5704L68.2755 81.3933L69.3292 83.0534L72.1237 81.0274L72.4863 81.5989L69.0871 84.0635Z" fill="#2B2A29"/>
<path d="M15.0754 79.1034C-1.7268 61.8727 -1.37705 33.8504 15.8566 16.5138C33.0903 -0.822894 60.6819 -0.908998 77.4841 16.3215C94.2863 33.552 93.9365 61.5742 76.7028 78.911" stroke="#2B2A29" stroke-width="0.7056" stroke-miterlimit="22.9256"/>
<path d="M45.4424 77.7951C47.1059 78.3934 50.0198 76.2897 51.9505 73.0961C53.881 69.9026 54.0975 66.8288 52.434 66.2303C50.7705 65.6321 47.8569 67.736 45.9262 70.9293C43.9955 74.1229 43.779 77.1969 45.4424 77.7951Z" fill="#7FA91F"/>
<path d="M47.1173 77.7951C48.7807 77.1969 48.5642 74.1229 46.6335 70.9293C44.7028 67.736 41.7892 65.6321 40.1255 66.2303C38.462 66.8288 38.6787 69.9026 40.6092 73.0961C42.5399 76.2897 45.4536 78.3934 47.1173 77.7951Z" fill="#7FA91F"/>
<path d="M18.9575 60.1162C21.911 61.9835 28.5211 55.9858 33.7214 46.7202C38.9218 37.4546 40.7434 28.4294 37.7898 26.5621C34.8363 24.6949 28.2265 30.6925 23.0259 39.9581C17.8256 49.2237 16.0041 58.2488 18.9575 60.1162Z" stroke="#2B2A29" stroke-width="1.19937" stroke-miterlimit="22.9256"/>
<path d="M72.6719 60.1162C69.7185 61.9835 63.1084 55.9858 57.908 46.7202C52.7076 37.4546 50.886 28.4294 53.8395 26.5621C56.7929 24.6949 63.403 30.6925 68.6033 39.9581C73.8037 49.2237 75.6253 58.2488 72.6719 60.1162Z" stroke="#2B2A29" stroke-width="1.19937" stroke-miterlimit="22.9256"/>
<path fill-rule="evenodd" clip-rule="evenodd" d="M45.5742 22.1016C52.4182 22.1016 57.9662 27.99 57.9662 35.2539C57.9662 36.491 57.8047 37.6883 57.5038 38.8232C61.2765 39.9701 64.053 43.8529 64.053 48.4676C64.053 53.9846 60.085 58.4568 55.1904 58.4568C50.2957 58.4568 46.0943 57.0939 46.4405 51.5895L46.4463 51.4972C46.3517 51.5011 46.1789 51.4896 46.1181 51.4925L46.1239 51.5999C46.4159 57.1072 42.1805 58.4568 37.2859 58.4568C32.3913 58.4568 28.4233 53.9846 28.4233 48.4676C28.4233 44.3552 30.6283 40.8239 33.7783 39.2922C33.3917 38.0198 33.1822 36.6629 33.1822 35.2539C33.1822 27.99 38.7303 22.1016 45.5742 22.1016Z" fill="#FEFEFE" stroke="#2B2A29" stroke-width="0.7056" stroke-miterlimit="22.9256"/>
<path d="M39.7066 37.8206C40.2263 37.8206 40.6475 36.7026 40.6475 35.3233C40.6475 33.9443 40.2263 32.826 39.7066 32.826C39.1867 32.826 38.7654 33.9443 38.7654 35.3233C38.7654 36.7026 39.1867 37.8206 39.7066 37.8206Z" fill="#2B2A29" stroke="#2B2A29" stroke-width="0.2" stroke-miterlimit="22.9256"/>
<path d="M51.4451 37.8206C51.9648 37.8206 52.3861 36.7026 52.3861 35.3233C52.3861 33.9443 51.9648 32.826 51.4451 32.826C50.9254 32.826 50.5039 33.9443 50.5039 35.3233C50.5039 36.7026 50.9254 37.8206 51.4451 37.8206Z" fill="#2B2A29" stroke="#2B2A29" stroke-width="0.2" stroke-miterlimit="22.9256"/>
<path d="M46.0685 51.4012C46.6006 51.5796 47.5323 50.9522 48.1498 49.9996C48.7673 49.0469 48.8366 48.1299 48.3045 47.9515C47.7726 47.7729 46.8406 48.4006 46.2232 49.3532C45.6057 50.3058 45.5366 51.2226 46.0685 51.4012Z" fill="#2B2A29"/>
<path d="M46.6036 51.4012C47.1357 51.2226 47.0663 50.3058 46.4489 49.3532C45.8314 48.4006 44.8996 47.7732 44.3675 47.9515C43.8357 48.1299 43.9048 49.0469 44.5222 49.9996C45.1397 50.9522 46.0717 51.5796 46.6036 51.4012Z" fill="#2B2A29"/>
</svg>
