<svg width="45" height="42" viewBox="0 0 45 42" fill="none" xmlns="http://www.w3.org/2000/svg">
<path d="M6.73898 35.2439C-1.58527 27.4483 -1.41199 14.7702 7.12602 6.92656C15.6641 -0.917063 29.3336 -0.956016 37.6579 6.83956C45.9822 14.6351 45.8089 27.3132 37.2709 35.1568" stroke="#2B2A29" stroke-width="0.7056" stroke-miterlimit="22.9256"/>
<path d="M22.1163 11.5039C22.9404 11.7746 24.3839 10.8227 25.3404 9.3779C26.2969 7.93306 26.4042 6.54235 25.5801 6.27165C24.7559 6.00095 23.3124 6.95278 22.3559 8.39761C21.3994 9.84245 21.2921 11.2332 22.1163 11.5039Z" fill="#7FA91F"/>
<path d="M22.9459 11.5039C23.7701 11.2332 23.6628 9.84245 22.7063 8.39761C21.7498 6.95277 20.3063 6.00094 19.4821 6.27164C18.658 6.54234 18.7653 7.93306 19.7218 9.3779C20.6783 10.8227 22.1218 11.7746 22.9459 11.5039Z" fill="#7FA91F"/>
<path d="M9.56789 37.9571L10.9465 36.0369L11.2295 36.2015L10.6616 36.9926L11.7642 37.6337L12.3322 36.8426L12.6153 37.0072L11.2368 38.9274L10.9536 38.7628L11.6025 37.859L10.4998 37.2179L9.851 38.1217L9.56789 37.9571V37.9571ZM11.4937 39.0279L13.5152 37.3891L13.8446 37.5401L13.6128 39.9995L13.2719 39.8432L13.3596 39.1058L12.4065 38.6688L11.8114 39.1735L11.4937 39.0279V39.0279ZM12.6184 38.4901L13.3898 38.8438L13.4735 38.1708C13.4995 37.9665 13.5261 37.8002 13.552 37.6711C13.4458 37.7896 13.3303 37.9009 13.2051 38.006L12.6184 38.4901V38.4901ZM13.8726 40.0641L14.6701 37.8936L14.998 37.9911L15.6375 40.0714L16.2635 38.3677L16.57 38.4589L15.7725 40.6294L15.4446 40.5318L14.8051 38.4516L14.1791 40.1553L13.8726 40.0641ZM16.3035 40.7757L16.856 38.5443L17.7103 38.7156C17.903 38.7543 18.0476 38.7942 18.1439 38.8359C18.2786 38.894 18.3866 38.9718 18.468 39.0688C18.5743 39.1948 18.6404 39.3411 18.6668 39.5088C18.6937 39.6766 18.6821 39.8603 18.6328 40.0592C18.5909 40.2285 18.5318 40.3742 18.4556 40.4963C18.3793 40.6184 18.2959 40.7156 18.2059 40.7876C18.1155 40.8594 18.0237 40.9118 17.9296 40.9442C17.8361 40.9772 17.7281 40.9948 17.6064 40.9971C17.4841 40.9993 17.3483 40.9852 17.1982 40.9551L16.3035 40.7757V40.7757ZM16.6974 40.5799L17.2261 40.6859C17.3894 40.7187 17.5209 40.7309 17.6206 40.722C17.7203 40.713 17.8037 40.6894 17.8715 40.6507C17.9662 40.5961 18.0502 40.5137 18.1228 40.404C18.1954 40.2942 18.2529 40.1553 18.2946 39.9865C18.3525 39.7527 18.3543 39.5645 18.3006 39.4217C18.2469 39.279 18.1644 39.1741 18.0532 39.1072C17.973 39.0589 17.8353 39.0155 17.6403 38.9764L17.1203 38.8721L16.6974 40.5799V40.5799ZM21.6897 40.5335L22.0199 40.6314C21.9303 40.8748 21.7892 41.0552 21.5967 41.1736C21.4042 41.292 21.1761 41.3431 20.9124 41.3264C20.6399 41.309 20.4221 41.245 20.2589 41.1338C20.0957 41.0231 19.9773 40.8699 19.9032 40.6748C19.829 40.479 19.8002 40.2729 19.8173 40.0553C19.8359 39.818 19.9024 39.6142 20.0171 39.4439C20.1319 39.2735 20.2858 39.1483 20.4788 39.0683C20.6719 38.9883 20.8801 38.9557 21.1031 38.9699C21.3567 38.986 21.5651 39.0575 21.7282 39.1847C21.8918 39.3119 21.9994 39.4825 22.0507 39.6971L21.716 39.7462C21.6707 39.5769 21.5947 39.4504 21.4891 39.3679C21.3836 39.2849 21.2462 39.2383 21.0769 39.2275C20.8828 39.2151 20.7167 39.2467 20.5798 39.3223C20.4428 39.3979 20.3419 39.5051 20.2783 39.6429C20.2141 39.7813 20.1761 39.9255 20.1643 40.0757C20.149 40.2695 20.167 40.4408 20.2181 40.5892C20.2693 40.7381 20.3582 40.852 20.4846 40.9321C20.6111 41.0122 20.7511 41.0568 20.905 41.0666C21.0926 41.0786 21.2545 41.0398 21.3919 40.9509C21.5293 40.8615 21.6286 40.7228 21.6897 40.5335V40.5335ZM22.3917 41.3857L22.3213 39.1005L23.4467 39.0724C23.6731 39.0668 23.8458 39.0833 23.9646 39.1212C24.0836 39.1593 24.1798 39.2293 24.2533 39.3313C24.3269 39.4332 24.3653 39.5472 24.3692 39.6728C24.3741 39.835 24.3198 39.9732 24.2068 40.0873C24.0938 40.2014 23.9163 40.276 23.6737 40.3125C23.7641 40.3485 23.8327 40.3851 23.88 40.4212C23.9805 40.4996 24.0765 40.5989 24.1671 40.7185L24.6255 41.3299L24.2058 41.3404L23.8554 40.8733C23.7536 40.7379 23.6694 40.6352 23.6039 40.5639C23.5378 40.4926 23.4796 40.4435 23.4284 40.4155C23.3779 40.388 23.3258 40.3691 23.2734 40.3586C23.2354 40.3527 23.1732 40.3505 23.0863 40.3527L22.6974 40.3624L22.7287 41.3773L22.3917 41.3857V41.3857ZM22.6893 40.1007L23.4105 40.0827C23.5642 40.0788 23.6831 40.0615 23.7685 40.0306C23.854 40.0002 23.9182 39.9529 23.9605 39.8885C24.0035 39.8246 24.0239 39.7559 24.0216 39.682C24.0183 39.574 23.9724 39.4857 23.8833 39.4182C23.7943 39.3507 23.6561 39.3196 23.4687 39.3242L22.666 39.3443L22.6893 40.1007V40.1007ZM24.6686 41.3297L25.1859 38.9259L25.5499 38.868L27.0105 40.9571L26.6338 41.0171L26.2104 40.3808L25.157 40.5484L25.0197 41.2739L24.6686 41.3297V41.3297ZM25.2067 40.2909L26.0592 40.1552L25.6757 39.5727C25.5598 39.3954 25.4696 39.2482 25.404 39.1311C25.3985 39.2833 25.3808 39.4347 25.3511 39.5864L25.2067 40.2909ZM27.285 40.907L26.5992 38.7058L28.2493 38.2895L28.3297 38.5478L27.0042 38.8822L27.2178 39.5677L28.3657 39.2782L28.4461 39.5364L27.2983 39.826L27.6095 40.8252L27.285 40.907V40.907ZM29.9571 40.1663L29.1421 38.2864L28.362 38.5603L28.2537 38.3104L30.1279 37.6524L30.2362 37.9023L29.4561 38.1761L30.2711 40.056L29.9571 40.1663V40.1663ZM31.3761 39.6499L30.2229 37.6129L31.8573 36.8636L31.9926 37.1026L30.6585 37.7142L31.0128 38.3401L32.2616 37.7676L32.3968 38.0066L31.1481 38.5791L31.5411 39.2732L32.929 38.6369L33.0642 38.8759L31.3761 39.6499V39.6499ZM33.4743 38.6418L32.1016 36.7182L32.8381 36.2926C33.0043 36.1966 33.1375 36.1322 33.2382 36.1C33.3788 36.0548 33.5162 36.0405 33.6501 36.0567C33.8244 36.0774 33.9864 36.1381 34.1374 36.2393C34.2888 36.3402 34.4256 36.4768 34.548 36.6483C34.6522 36.7943 34.7256 36.9346 34.7683 37.0693C34.811 37.204 34.829 37.3258 34.8225 37.4339C34.8155 37.5422 34.7924 37.6378 34.7518 37.7208C34.712 37.8038 34.6499 37.8852 34.566 37.9647C34.4817 38.0444 34.3749 38.1213 34.2456 38.1961L33.4743 38.6418V38.6418ZM33.5969 38.2522L34.0527 37.9888C34.1935 37.9074 34.2956 37.832 34.3588 37.7619C34.422 37.6919 34.462 37.6219 34.4791 37.5514C34.5026 37.4524 34.4967 37.3407 34.4612 37.2171C34.4257 37.0934 34.3564 36.9589 34.2526 36.8134C34.1088 36.6119 33.9614 36.4782 33.8109 36.4121C33.6604 36.3461 33.5196 36.325 33.3885 36.3489C33.294 36.3662 33.1628 36.4237 32.9946 36.5208L32.5463 36.7799L33.5969 38.2522V38.2522Z" fill="#2B2A29"/>
<path d="M22.8135 17.8293L20.2977 18.3801L18.8305 12.9521C18.788 12.7945 18.8953 12.6357 19.0705 12.5973C20.2848 12.3315 21.5087 13.002 21.8041 14.0948L22.8135 17.8293V17.8293Z" fill="#FEFEFE"/>
<path d="M22.8135 17.8285L22.791 17.7456L20.3675 18.2761L18.9227 12.9311C18.9197 12.92 18.9178 12.9089 18.9169 12.8979C18.9081 12.7982 18.981 12.7039 19.0929 12.6796C19.2079 12.6544 19.3228 12.638 19.4369 12.6299C20.4788 12.5557 21.4569 13.1705 21.7118 14.1142L22.7212 17.8487L22.8135 17.8285L22.791 17.7456L22.8135 17.8285L22.9057 17.8084L21.8962 14.0738C21.6186 13.0475 20.5559 12.3788 19.422 12.4596C19.2978 12.4684 19.1728 12.4863 19.048 12.5135C18.8443 12.5583 18.7115 12.7289 18.7276 12.9114C18.7294 12.9313 18.7329 12.9515 18.7383 12.9715L20.2279 18.4824L22.9281 17.8914L22.9057 17.8084L22.8135 17.8285V17.8285Z" fill="#2B2A29"/>
<path d="M16.6798 34.4419L19.8535 27.3873L15.7965 23.6833C15.014 22.9688 14.8701 21.8678 15.4467 21.0094L17.7198 17.6263C18.3601 16.6731 19.2008 15.8415 20.1948 15.1778L22.6444 13.542C23.1387 13.212 23.8364 13.3031 24.2061 13.746C24.5601 14.1702 24.4877 14.7687 24.0407 15.1145L21.1724 17.5846L19.015 20.8995C19.8998 21.2745 20.7844 21.6494 21.6691 22.0244C22.3758 22.324 23.0826 22.6235 23.7894 22.9231C24.5203 23.2328 25.361 23.4882 26.0183 23.9076C27.5926 24.9119 27.3112 27.4996 26.673 28.8922L22.9723 36.9662L16.6798 34.4419V34.4419Z" fill="#FEFEFE"/>
<path d="M16.6798 34.4419L16.7678 34.4739L19.9648 27.3672L15.8641 23.6232C15.4659 23.2597 15.2399 22.7922 15.1974 22.31C15.1598 21.8814 15.2671 21.4418 15.528 21.0536L17.801 17.6705C18.4349 16.7268 19.2673 15.9035 20.2514 15.2463L22.701 13.6106C22.8613 13.5036 23.0443 13.4452 23.2293 13.432C23.5678 13.408 23.9115 13.5353 24.1302 13.7973C24.251 13.9421 24.3174 14.1085 24.3322 14.2773C24.3572 14.5617 24.2357 14.851 23.9789 15.0497L23.977 15.0512L21.0972 17.531L18.8807 20.937L18.9746 20.9768C19.8593 21.3517 20.7439 21.7267 21.6286 22.1017C22.3354 22.4012 23.0422 22.7008 23.749 23.0004C24.4869 23.3125 25.3225 23.5676 25.9634 23.9772C26.316 24.2023 26.5723 24.5105 26.7514 24.8724C26.9302 25.2341 27.0304 25.649 27.0684 26.0812C27.1553 27.0629 26.9189 28.1328 26.5852 28.8597L22.9218 36.8524L16.7185 34.3638L16.6798 34.4419L16.7678 34.4739L16.6798 34.4419L16.6412 34.5199L23.0229 37.0799L26.7607 28.9248C27.1058 28.1705 27.3464 27.0834 27.2577 26.0677C27.2183 25.6207 27.1147 25.1873 26.9248 24.8029C26.7351 24.4187 26.4577 24.0831 26.0732 23.8379C25.3994 23.4088 24.5537 23.1532 23.8299 22.8458C23.123 22.5462 22.4163 22.2467 21.7095 21.9471C20.8248 21.5721 19.9402 21.1972 19.0555 20.8222L19.015 20.8995L19.097 20.9427L21.2476 17.638L24.1065 15.1762L24.0408 15.1145L24.1026 15.1793C24.4067 14.944 24.5512 14.6004 24.5215 14.2639C24.5039 14.0639 24.4248 13.866 24.282 13.6947C24.0229 13.3844 23.6149 13.233 23.2144 13.2617C22.9951 13.2772 22.7773 13.3469 22.5879 13.4734L20.1382 15.1092C19.1343 15.7795 18.2852 16.6194 17.6385 17.5821L15.3655 20.9652C15.0836 21.3847 14.9674 21.8604 15.0082 22.3234C15.0539 22.8445 15.2985 23.3503 15.7289 23.7432L19.7421 27.4073L16.5575 34.4864L16.6412 34.5199L16.6798 34.4419V34.4419Z" fill="#2B2A29"/>
<path d="M18.3793 21.7035L21.1034 17.6761C21.4752 17.1265 22.2715 16.9521 22.8823 17.2866C23.4931 17.6212 23.6868 18.338 23.315 18.8876L20.7172 22.7221L18.3793 21.7035V21.7035Z" fill="#FEFEFE"/>
<path d="M18.4603 21.7479L21.1844 17.7205C21.3927 17.4125 21.7444 17.232 22.1156 17.2054C22.3584 17.1882 22.6087 17.2369 22.833 17.3597C23.1752 17.5471 23.3758 17.8636 23.4053 18.1976C23.4245 18.4161 23.3704 18.6414 23.234 18.8432V18.8431L20.6361 22.6776L20.7982 22.7666L23.396 18.9321L23.3962 18.932C23.5538 18.6989 23.6169 18.437 23.5945 18.1841C23.5608 17.7978 23.3277 17.4306 22.9317 17.2137C22.6726 17.0717 22.3816 17.0151 22.1007 17.0351C21.6714 17.0656 21.2633 17.2752 21.0223 17.6316L18.2981 21.6591L18.4603 21.7479Z" fill="#2B2A29"/>
<path d="M20.7172 22.7221L23.0031 19.2285C23.3748 18.6789 24.1712 18.5046 24.782 18.8392C25.3927 19.1737 25.5865 19.8905 25.2147 20.4401L22.9618 23.6541L20.7172 22.7221V22.7221Z" fill="#FEFEFE"/>
<path d="M20.7989 22.7654L23.0848 19.2719L23.0031 19.2285L23.0841 19.273C23.2925 18.965 23.644 18.7845 24.0153 18.758C24.2582 18.7406 24.5084 18.7893 24.7326 18.9121C25.0749 19.0996 25.2754 19.416 25.305 19.7501C25.3241 19.9686 25.27 20.1939 25.1336 20.3956L25.2147 20.4401L25.1344 20.3945L22.8814 23.6085L23.0419 23.6996L25.2954 20.4851L25.2958 20.4844C25.4535 20.2513 25.5165 19.9895 25.4943 19.7366C25.4604 19.3504 25.2274 18.9831 24.8313 18.7662C24.5724 18.6243 24.2812 18.5676 24.0003 18.5877C23.571 18.618 23.1631 18.8278 22.9219 19.1842L22.9216 19.1847L20.6354 22.6787L20.7989 22.7654V22.7654Z" fill="#2B2A29"/>
<path d="M23.0158 23.5706L24.9027 20.7811C25.2744 20.2315 26.0709 20.0571 26.6816 20.3916C27.2924 20.7262 27.4861 21.4429 27.1143 21.9925L25.7662 23.9114L23.0158 23.5706V23.5706Z" fill="#FEFEFE"/>
<path d="M23.0969 23.615L24.9838 20.8255C25.1921 20.5175 25.5437 20.337 25.915 20.3104C26.1578 20.2932 26.4081 20.3419 26.6323 20.4646C26.9746 20.6521 27.1751 20.9685 27.2046 21.3026C27.2238 21.5211 27.1696 21.7464 27.0333 21.9481L27.1143 21.9925L27.0341 21.9469L25.686 23.8658L25.8464 23.957L27.195 22.0376L27.1954 22.037C27.3531 21.8039 27.4162 21.542 27.3939 21.2891C27.3601 20.9028 27.127 20.5356 26.731 20.3187C26.472 20.1767 26.1809 20.12 25.9 20.1401C25.4708 20.1706 25.0626 20.3803 24.8216 20.7367L22.9347 23.5262L23.0969 23.615V23.615Z" fill="#2B2A29"/>
<path d="M24.4716 14.0736C23.6626 14.9269 22.6877 14.9377 22.3565 14.6016C22.1684 14.4107 22.252 14.1614 22.3612 13.9798C22.4482 13.8352 22.5713 13.7119 22.7129 13.608C22.941 13.4407 23.3834 13.1537 23.9107 13.0028C24.6844 12.7814 25.1176 13.3925 24.4716 14.0736V14.0736Z" fill="#FEFEFE"/>
<path d="M24.4716 14.0736L24.3994 14.0182C23.951 14.4912 23.4563 14.6907 23.0659 14.7184C22.7722 14.7397 22.5414 14.6621 22.4275 14.5449C22.3711 14.4872 22.3473 14.428 22.3412 14.3625C22.3307 14.2536 22.3805 14.1262 22.4447 14.0205C22.5244 13.8877 22.6388 13.7726 22.7729 13.6742C22.9954 13.5107 23.4304 13.2296 23.9394 13.0842C24.0174 13.0619 24.0905 13.0491 24.1578 13.0443C24.3202 13.0329 24.4472 13.0675 24.5355 13.1289C24.6236 13.1906 24.6778 13.2797 24.6886 13.3967C24.7036 13.5599 24.6252 13.7803 24.3994 14.0182L24.4716 14.0736L24.5438 14.1291C24.7919 13.8672 24.8971 13.6068 24.8779 13.3832C24.8645 13.2239 24.7833 13.0846 24.6516 12.9936C24.5199 12.9022 24.3426 12.8595 24.1428 12.8739C24.0597 12.8799 23.9725 12.8956 23.8819 12.9214C23.3363 13.078 22.8867 13.3706 22.653 13.5419C22.5038 13.6512 22.3719 13.7827 22.2777 13.9392C22.2053 14.0607 22.1384 14.2133 22.1519 14.376C22.16 14.4728 22.2008 14.573 22.2854 14.6583C22.4555 14.8292 22.745 14.9122 23.0808 14.8887C23.5294 14.8567 24.0677 14.6311 24.5438 14.1291L24.4716 14.0736V14.0736Z" fill="#2B2A29"/>
<path d="M22.545 3.47311V5.30874" stroke="#2B2A29" stroke-width="0.7056" stroke-miterlimit="22.9256"/>
<path d="M25.9069 4.38442L23.8647 5.68241" stroke="#2B2A29" stroke-width="0.7056" stroke-miterlimit="22.9256"/>
<path d="M19.1437 4.38442L21.1859 5.68241" stroke="#2B2A29" stroke-width="0.7056" stroke-miterlimit="22.9256"/>
</svg>
