<svg width="42" height="42" viewBox="0 0 42 42" fill="none" xmlns="http://www.w3.org/2000/svg">
<path d="M1.43659 21.0068C1.43395 9.60907 10.2541 0.36741 21.137 0.365046C32.0198 0.362682 40.8443 9.60048 40.8469 20.9982" stroke="#2B2A29" stroke-width="0.7056" stroke-miterlimit="22.9256"/>
<path d="M0.412613 22.0082C1.29536 22.0082 2.17806 22.0082 3.06081 22.0082C3.06081 22.1351 3.06231 22.2621 3.0653 22.389C2.37166 22.9021 1.71502 23.4618 1.09885 24.0612C1.78747 23.9867 2.47609 23.9121 3.16471 23.8376C3.17791 23.9529 3.19236 24.0681 3.20802 24.1831C2.33296 24.2962 1.45791 24.4093 0.582856 24.5224C0.563427 24.3799 0.545659 24.2373 0.529549 24.0946C1.14483 23.4802 1.80111 22.905 2.49527 22.3761C1.80257 22.3905 1.10981 22.4049 0.417105 22.4193C0.41411 22.2823 0.412613 22.1452 0.412613 22.0082V22.0082ZM1.94136 24.8872C2.32406 24.8262 2.70146 24.8698 3.02483 25.0899C3.32977 25.2975 3.50467 25.5838 3.59287 25.932C3.65136 26.1627 3.65937 26.3933 3.60291 26.6252C3.54851 26.8486 3.44003 27.0428 3.27529 27.2072C3.10096 27.3813 2.8898 27.5021 2.65341 27.5784C2.41072 27.6567 2.16203 27.6803 1.91141 27.6239C1.66345 27.5681 1.45872 27.442 1.29313 27.2548C1.11678 27.0554 0.999519 26.8226 0.934959 26.5677C0.867526 26.3015 0.858661 26.0268 0.934068 25.7612C1.00102 25.5254 1.12516 25.3201 1.3196 25.1631C1.50138 25.0163 1.7083 24.9244 1.94136 24.8872V24.8872ZM2.00665 25.284C1.72181 25.3359 1.47621 25.4608 1.32523 25.7094C1.17717 25.9531 1.15657 26.2241 1.22533 26.4958C1.29447 26.7689 1.44087 27.0019 1.69223 27.1489C1.95318 27.3016 2.24886 27.2865 2.53073 27.2023C2.7164 27.1469 2.89194 27.0605 3.03498 26.9311C3.16321 26.8151 3.25258 26.6742 3.298 26.5094C3.3443 26.3415 3.34155 26.1728 3.29889 26.0045C3.23668 25.7592 3.10679 25.5614 2.89927 25.4088C2.64811 25.2241 2.30155 25.2303 2.00665 25.284V25.284ZM1.80435 29.0576C2.27197 29.0789 2.7321 29.0882 3.20021 29.0858C3.70005 29.0862 4.18864 29.073 4.68767 29.0459C4.74583 29.1651 4.80549 29.2837 4.86653 29.4015C4.24154 30.1269 3.66289 30.8899 3.13196 31.6831C3.04968 31.5476 2.96913 31.4111 2.89028 31.2736C3.06271 31.0419 3.23915 30.813 3.41959 30.5872C3.2147 30.2136 3.02309 29.8331 2.84527 29.4466C2.6741 29.4505 2.50321 29.4526 2.33199 29.4535C2.21243 29.4549 2.09314 29.4558 1.97354 29.456C1.91562 29.3238 1.85919 29.191 1.80435 29.0576V29.0576ZM3.15411 29.4388C3.29788 29.7459 3.45051 30.0492 3.61173 30.348C3.77861 30.1465 3.94873 29.9476 4.12201 29.7514C4.25028 29.6071 4.38418 29.4642 4.52544 29.3318C4.3535 29.3714 4.17362 29.3982 3.99722 29.4083C3.71721 29.4243 3.43452 29.4332 3.15411 29.4388ZM3.31107 31.9723C4.06308 31.5224 4.81509 31.0724 5.56709 30.6225C5.78279 30.964 6.01112 31.2979 6.2513 31.6235C6.35448 31.7634 6.4791 31.9432 6.53245 32.1085C6.57467 32.2393 6.57139 32.3694 6.52743 32.4994C6.48226 32.6328 6.40321 32.7443 6.29093 32.8326C6.14489 32.9475 5.97926 32.9939 5.79307 32.9672C5.56641 32.9348 5.36382 32.7763 5.21143 32.6188C5.23207 32.7014 5.25219 32.799 5.25033 32.8843C5.24697 33.0394 5.21746 33.2029 5.17581 33.3525C5.09688 33.6361 5.02342 33.9197 4.95688 34.2063C4.84395 34.0738 4.73276 33.9398 4.62343 33.8045C4.6801 33.5868 4.74061 33.37 4.80497 33.1544C4.84799 33.0095 4.89203 32.86 4.92336 32.7123C4.94064 32.6309 4.95611 32.5326 4.94692 32.4495C4.94028 32.3893 4.92405 32.3201 4.89903 32.2647C4.87228 32.2054 4.82047 32.1332 4.78291 32.0795C4.69605 31.9552 4.61072 31.8299 4.52702 31.7035C4.1975 31.9103 3.86803 32.1171 3.53851 32.3239C3.4614 32.2075 3.38559 32.0903 3.31107 31.9723ZM4.78194 31.5436C4.93457 31.774 5.09267 32.0011 5.25603 32.2245C5.33423 32.3314 5.43296 32.4504 5.54402 32.5266C5.62376 32.5812 5.70997 32.6141 5.80861 32.6104C5.89657 32.6072 5.97404 32.5821 6.04398 32.5295C6.14376 32.4545 6.1948 32.3547 6.19998 32.2324C6.20645 32.0799 6.11154 31.9213 6.02322 31.8019C5.84881 31.5659 5.68051 31.3256 5.51868 31.0812C5.27307 31.2354 5.02751 31.3895 4.78194 31.5436V31.5436ZM5.70973 35.0405C6.28041 34.5241 6.85108 34.0078 7.42175 33.4914C7.20925 33.269 7.00274 33.0411 6.80251 32.8082C6.88196 32.7435 6.96138 32.6788 7.04083 32.6141C7.4379 33.0728 7.83461 33.4885 8.27491 33.9081C8.3691 33.9971 8.46401 34.085 8.56015 34.172C8.48964 34.2458 8.41913 34.3196 8.34858 34.3935C8.25087 34.3047 8.15429 34.2155 8.05836 34.1249C7.93078 34.0041 7.80551 33.8819 7.68145 33.7576C7.12207 34.2856 6.56265 34.8134 6.00322 35.3413C5.90434 35.242 5.80647 35.1417 5.70973 35.0405V35.0405ZM7.1321 36.3907C7.71695 35.7472 8.30179 35.1036 8.88659 34.4601C8.97851 34.5392 9.07124 34.6174 9.16482 34.6947C8.59378 35.3498 8.02278 36.005 7.45175 36.6602C7.34424 36.5714 7.23771 36.4816 7.1321 36.3907V36.3907ZM8.04484 37.1315C8.5903 36.456 9.13576 35.7806 9.68122 35.105C10.1744 35.4823 10.6879 35.8341 11.219 36.1589C11.1639 36.2442 11.1089 36.3295 11.0538 36.4149C10.6195 36.1494 10.1967 35.866 9.78694 35.5657C9.62155 35.7794 9.45621 35.9932 9.29082 36.207C9.66158 36.4787 10.0425 36.7371 10.4327 36.9818C10.3766 37.0665 10.3205 37.1512 10.2644 37.236C9.86793 36.9873 9.48074 36.7246 9.10394 36.4485C8.86291 36.76 8.62187 37.0716 8.38084 37.3831C8.26795 37.3004 8.15595 37.2165 8.04484 37.1315V37.1315ZM10.343 38.6563C10.7898 37.9153 11.2366 37.1743 11.6834 36.4333C11.7904 36.4945 11.8981 36.5546 12.0065 36.6136C11.5756 37.3634 11.1447 38.1132 10.7138 38.863C10.5895 38.7954 10.4658 38.7264 10.343 38.6563V38.6563ZM13.798 39.2678C13.9115 39.3406 14.0258 39.4122 14.1409 39.4826C13.9761 39.7053 13.7621 39.8659 13.4846 39.929C13.2867 39.9707 13.1334 39.9669 12.9355 39.9275C12.8829 39.9259 12.6811 39.8512 12.6255 39.8279C12.3622 39.7179 12.095 39.5591 11.923 39.331C11.7773 39.1376 11.7064 38.9199 11.7082 38.6802C11.7101 38.4378 11.7737 38.2084 11.8883 37.9938C12.0049 37.7755 12.1635 37.5851 12.3751 37.4481C12.5705 37.3216 12.7853 37.2557 13.0197 37.249C13.2607 37.2421 13.4902 37.2904 13.7112 37.3827C13.7576 37.4021 13.9263 37.4794 13.9572 37.5086C14.0974 37.6004 14.1888 37.6852 14.2838 37.8216C14.4171 38.0197 14.4698 38.2398 14.4594 38.4753C14.3342 38.4595 14.2092 38.4425 14.0843 38.4244C14.0904 38.2584 14.0663 38.0851 13.9728 37.9427C13.9505 37.9087 13.8708 37.8102 13.8373 37.7927C13.7559 37.7289 13.6822 37.6888 13.5869 37.648C13.4083 37.5734 13.2158 37.53 13.0211 37.5574C12.8466 37.582 12.6945 37.6514 12.5664 37.7698C12.4394 37.8873 12.3359 38.0211 12.2584 38.1741C12.1692 38.3501 12.1061 38.5405 12.1015 38.738C12.0974 38.9183 12.1528 39.0796 12.2682 39.2207C12.3867 39.3656 12.5371 39.4733 12.7114 39.5465C12.8308 39.5953 12.9297 39.623 13.0588 39.6356C13.1091 39.6491 13.268 39.6275 13.322 39.6143C13.5264 39.5642 13.6808 39.4341 13.798 39.2678V39.2678ZM14.4119 40.4364C14.6849 39.6194 14.9579 38.8023 15.2309 37.9853C15.3465 38.0219 15.4625 38.0574 15.5789 38.0917C15.3229 38.9139 15.0669 39.7361 14.8108 40.5584C14.6774 40.519 14.5444 40.4784 14.4119 40.4364ZM15.185 40.665C15.8081 39.9526 16.3935 39.2089 16.9367 38.4369C17.0688 38.4653 17.2013 38.4922 17.334 38.5176C17.5382 39.4437 17.7996 40.3575 18.1145 41.2537C17.9538 41.2329 17.7934 41.2103 17.6332 41.1859C17.5521 40.911 17.4757 40.6347 17.4042 40.3573C16.9792 40.285 16.5566 40.1994 16.1373 40.1006C15.9664 40.329 15.792 40.5549 15.6142 40.7783C15.4707 40.742 15.3276 40.7042 15.185 40.665V40.665ZM16.3183 39.8577C16.6533 39.9346 16.9904 40.003 17.329 40.0627C17.2687 39.8108 17.2125 39.5579 17.1601 39.3043C17.1222 39.1172 17.0888 38.9267 17.0684 38.7369C16.9951 38.8933 16.9067 39.048 16.807 39.1899C16.6491 39.4151 16.4843 39.6381 16.3183 39.8577V39.8577ZM18.4341 41.2926C18.5369 40.4393 18.6397 39.586 18.7425 38.7327C18.8674 38.747 18.9924 38.76 19.1175 38.7717C19.0426 39.5265 18.9677 40.2814 18.8928 41.0362C19.4203 41.0858 19.9497 41.1157 20.4795 41.1262C20.4774 41.227 20.4753 41.3277 20.4732 41.4285C19.7918 41.415 19.1111 41.3698 18.4341 41.2926V41.2926ZM22.1292 41.3989C22.0787 40.5412 22.0283 39.6834 21.9778 38.8257C22.6157 38.7901 23.2517 38.7226 23.8824 38.6228C23.899 38.7223 23.9156 38.8217 23.9322 38.9212C23.4182 39.0026 22.9007 39.0629 22.3814 39.1022C22.4028 39.369 22.4241 39.6358 22.4454 39.9025C22.9154 39.8669 23.384 39.8148 23.8501 39.7463C23.8655 39.846 23.881 39.9456 23.8965 40.0453C23.423 40.1149 22.947 40.1678 22.4695 40.204C22.5006 40.5928 22.5317 40.9816 22.5628 41.3704C22.4184 41.3813 22.2738 41.3908 22.1292 41.3989ZM24.8589 41.0721C24.6939 40.2281 24.529 39.3841 24.364 38.5401C24.7679 38.4653 25.1693 38.3773 25.5671 38.276C25.7365 38.2329 25.9521 38.1848 26.128 38.1964C26.2676 38.2057 26.3897 38.2563 26.4969 38.3431C26.6076 38.4328 26.6851 38.5452 26.729 38.6787C26.786 38.8518 26.7724 39.0188 26.6813 39.1782C26.571 39.3713 26.3498 39.4972 26.1462 39.5785C26.2319 39.5897 26.3316 39.6068 26.4117 39.6394C26.5578 39.6989 26.7021 39.7851 26.8288 39.8772C27.0691 40.0518 27.3111 40.222 27.5581 40.3874C27.3936 40.4409 27.2282 40.4923 27.0623 40.5417C26.8764 40.411 26.6926 40.2773 26.511 40.1409C26.3889 40.0494 26.2626 39.9552 26.1334 39.8734C26.0623 39.8284 25.9743 39.7788 25.8919 39.7572C25.8324 39.7415 25.7608 39.7313 25.6991 39.7341C25.6333 39.737 25.546 39.7582 25.4816 39.7729C25.3321 39.8073 25.1822 39.8399 25.0318 39.8708C25.1129 40.2442 25.194 40.6175 25.2751 40.9908C25.1366 41.0193 24.9978 41.0464 24.8589 41.0721V41.0721ZM24.9691 39.582C25.2431 39.5257 25.5158 39.4635 25.7871 39.3957C25.9163 39.3633 26.0644 39.3167 26.1759 39.2437C26.2562 39.191 26.3176 39.1247 26.3488 39.0344C26.3768 38.9533 26.3802 38.874 26.3551 38.7918C26.3192 38.6746 26.2429 38.5919 26.1282 38.5426C25.9857 38.4815 25.8013 38.5102 25.6562 38.5473C25.3684 38.6207 25.0789 38.6874 24.7879 38.7473C24.8483 39.0255 24.9087 39.3038 24.9691 39.582V39.582ZM27.6074 40.3713C27.7058 39.4426 27.7525 38.5088 27.7459 37.5752C27.7865 37.5592 27.8271 37.5431 27.8677 37.527C27.9527 37.4929 28.0375 37.4583 28.122 37.423C28.8321 38.0722 29.581 38.681 30.3624 39.2473C30.2175 39.3189 30.0716 39.3887 29.925 39.4569C29.6976 39.275 29.4733 39.0895 29.2521 38.9005C29.0256 39.0005 28.7993 39.0959 28.5694 39.1883C28.3994 39.256 28.2296 39.3214 28.0579 39.385C28.0509 39.6668 28.0396 39.9486 28.0236 40.2301C27.8855 40.2786 27.7467 40.3257 27.6074 40.3713V40.3713ZM28.0646 39.0857C28.1974 39.0358 28.3293 38.9845 28.4611 38.932C28.6482 38.8568 28.8331 38.7797 29.0179 38.6993C28.8208 38.525 28.6264 38.3478 28.4346 38.1679C28.2937 38.0348 28.1547 37.8963 28.0266 37.7513C28.0395 37.8264 28.0492 37.8992 28.0569 37.975C28.0672 38.0741 28.073 38.1686 28.0747 38.2683C28.077 38.5401 28.0723 38.814 28.0646 39.0857V39.0857ZM31.4184 37.5065C31.3635 37.421 31.3086 37.3355 31.2537 37.2501C31.612 37.0321 31.9629 36.8025 32.3056 36.562C32.4969 36.8202 32.6882 37.0785 32.8796 37.3367C32.7969 37.5538 32.6827 37.7576 32.5339 37.9386C32.3888 38.1152 32.2151 38.2652 32.0184 38.3853C31.7672 38.5387 31.4911 38.6437 31.1953 38.6754C30.9359 38.7032 30.6848 38.6649 30.4585 38.5346C30.2402 38.4089 30.0786 38.2308 29.9619 38.0129C29.8441 37.793 29.7858 37.5571 29.7853 37.3093C29.7847 37.0694 29.8492 36.8492 29.9863 36.6493C30.1301 36.4397 30.3212 36.2765 30.5397 36.1435C30.6978 36.0473 30.8682 35.9707 31.0505 35.9299C31.2036 35.8957 31.363 35.8862 31.5162 35.9252C31.6739 35.9652 31.8179 36.0492 31.9444 36.1476C31.867 36.2361 31.7887 36.3239 31.7096 36.411C31.6178 36.3431 31.508 36.276 31.3966 36.2442C31.29 36.2137 31.1746 36.2198 31.067 36.2416C30.9356 36.2683 30.8137 36.3206 30.7001 36.3897C30.5729 36.4671 30.4506 36.5611 30.3573 36.6763C30.2822 36.7691 30.2205 36.8736 30.1893 36.9883C30.1621 37.0885 30.1499 37.1945 30.1584 37.2979C30.1731 37.4764 30.2289 37.6494 30.3173 37.8061C30.4157 37.9806 30.5483 38.1451 30.7278 38.246C30.8939 38.3393 31.079 38.3677 31.2679 38.3427C31.4702 38.3159 31.6604 38.2467 31.8333 38.1414C31.9861 38.0483 32.1211 37.9292 32.231 37.79C32.3143 37.6846 32.4044 37.5537 32.4468 37.4262C32.3528 37.2938 32.2588 37.1613 32.1647 37.0289C31.9198 37.1936 31.6709 37.3528 31.4184 37.5065V37.5065ZM33.6031 37.2596C33.065 36.5785 32.5268 35.8975 31.9886 35.2165C32.3138 34.9731 32.6305 34.7186 32.9377 34.4539C33.0693 34.3405 33.2397 34.2024 33.4024 34.1348C33.5151 34.0904 33.6019 34.078 33.7229 34.0889C33.75 34.092 33.7745 34.0958 33.8012 34.1014C33.9423 34.1316 34.0643 34.1968 34.1659 34.2967C34.292 34.4269 34.3457 34.5417 34.354 34.7209C34.3554 34.7271 34.3539 34.7573 34.3536 34.7654C34.3442 34.987 34.2043 35.1977 34.0597 35.3605C34.1416 35.3325 34.2389 35.3036 34.3258 35.2971C34.4842 35.2853 34.6535 35.2981 34.8099 35.3239C34.8681 35.3336 34.9263 35.343 34.9845 35.3523C35.2246 35.389 35.4634 35.4213 35.7045 35.4503C35.6 35.5534 35.4947 35.6554 35.388 35.7563C35.3809 35.7662 35.3394 35.8022 35.3275 35.8133C35.1001 35.7795 34.8733 35.742 34.6472 35.7008C34.4954 35.6733 34.3386 35.6453 34.185 35.6294C34.1005 35.6207 33.9988 35.6154 33.9151 35.6324C33.8546 35.6447 33.786 35.6672 33.7321 35.6969C33.6746 35.7285 33.6065 35.7858 33.5558 35.8273C33.4384 35.9236 33.3198 36.0185 33.2001 36.112C33.4455 36.4096 33.6909 36.7072 33.9362 37.0048C33.8261 37.0908 33.715 37.1758 33.6031 37.2596V37.2596ZM33.0102 35.8818C33.2287 35.7112 33.4432 35.5359 33.6537 35.356C33.7543 35.27 33.8652 35.163 33.9311 35.0484C33.9785 34.9659 34.0028 34.8795 33.9888 34.7848C33.9764 34.7001 33.9426 34.6278 33.8819 34.5654C33.7954 34.4766 33.6885 34.4368 33.5632 34.4437C33.4073 34.4523 33.2558 34.5595 33.1432 34.6566C32.9207 34.8486 32.6934 35.0353 32.4616 35.2164C32.6444 35.4382 32.8274 35.66 33.0102 35.8818ZM35.7418 35.4134C35.4026 34.5365 35.0139 33.6777 34.5758 32.8433C34.6645 32.7438 34.7519 32.6433 34.8381 32.5418C35.771 32.8088 36.7201 33.0208 37.6788 33.1783C37.5844 33.3055 37.4883 33.4315 37.3907 33.5564C37.1037 33.495 36.8179 33.4289 36.5333 33.358C36.2649 33.6886 35.9852 34.0104 35.6947 34.3227C35.8186 34.5788 35.9383 34.8367 36.0538 35.0964C35.951 35.2032 35.847 35.3088 35.7418 35.4134V35.4134ZM35.5626 34.0512C35.7926 33.8008 36.0157 33.5443 36.2314 33.2821C35.9752 33.2137 35.72 33.1414 35.466 33.0653C35.2788 33.0086 35.0909 32.9464 34.9097 32.8735C35.016 33.0108 35.1135 33.1603 35.194 33.3133C35.3218 33.5561 35.4441 33.804 35.5626 34.0512V34.0512ZM37.8716 32.9142C37.1477 32.4225 36.4238 31.9308 35.7 31.4391C35.7722 31.3383 35.8434 31.2367 35.9134 31.1343C36.7781 31.1126 37.6408 31.0301 38.4937 30.8906C37.8864 30.5659 37.2791 30.2412 36.6718 29.9166C36.7288 29.8157 36.7846 29.7142 36.8394 29.6122C37.6218 30.01 38.4042 30.4079 39.1866 30.8058C39.1189 30.9319 39.0498 31.0572 38.9792 31.1818C38.1186 31.3336 37.2474 31.4285 36.3734 31.4622C36.9496 31.8367 37.5258 32.2113 38.102 32.5858C38.0263 32.696 37.9495 32.8055 37.8716 32.9142V32.9142ZM39.4835 27.8461C39.5549 27.7319 39.6249 27.617 39.6936 27.5014C39.9288 27.6552 40.1 27.8597 40.1729 28.1292C40.2492 28.4106 40.206 28.6981 40.0979 28.9658C40.0016 29.1962 39.9026 29.3749 39.7229 29.5542C39.7124 29.57 39.6363 29.631 39.617 29.6457C39.4228 29.7931 39.2013 29.8683 38.9552 29.8732C38.7062 29.8782 38.4689 29.8227 38.2452 29.7172C38.0179 29.61 37.8177 29.4613 37.6706 29.2598C37.5352 29.0744 37.4605 28.8685 37.4458 28.6416C37.4451 28.6315 37.442 28.5964 37.4433 28.5887C37.4379 28.3628 37.471 28.1972 37.5527 27.9862C37.6435 27.7612 37.777 27.5638 37.9819 27.4228C38.181 27.2858 38.4051 27.2261 38.6478 27.2275C38.6358 27.3506 38.6224 27.4736 38.6077 27.5964C38.4366 27.5964 38.2594 27.6263 38.1161 27.7224C37.9784 27.8149 37.8896 27.949 37.8292 28.0986C37.7601 28.2696 37.7249 28.4514 37.761 28.6339C37.7648 28.6529 37.7795 28.7202 37.7875 28.7345C37.8337 28.8718 37.8908 28.9628 37.9947 29.0659C38.1193 29.1857 38.2597 29.2824 38.4192 29.3533C38.6025 29.4348 38.7999 29.4908 39.0027 29.4895C39.1406 29.4865 39.2398 29.4638 39.3623 29.4015C39.3875 29.3939 39.4688 29.3353 39.4918 29.3168C39.6346 29.202 39.7387 29.0573 39.8066 28.89C39.8834 28.7007 39.9111 28.499 39.854 28.3008C39.7968 28.1024 39.6589 27.9554 39.4835 27.8461V27.8461ZM40.6478 27.2551C39.7993 27.0177 38.951 26.7804 38.1026 26.543C38.287 25.9188 38.4329 25.284 38.5395 24.6428C38.6418 24.6589 38.744 24.675 38.8462 24.6911C38.7574 25.2249 38.6419 25.7544 38.5001 26.2772C38.7624 26.3445 39.0247 26.4119 39.2869 26.4793C39.4259 25.9668 39.5408 25.4482 39.6312 24.9256C39.7333 24.9423 39.8354 24.959 39.9375 24.9757C39.8456 25.5075 39.7287 26.0351 39.5873 26.5565C39.8781 26.6312 40.169 26.7059 40.4599 26.7807C40.6249 26.172 40.7582 25.5553 40.859 24.9335C40.9613 24.9492 41.0636 24.9649 41.1659 24.9807C41.0414 25.7483 40.8684 26.5082 40.6478 27.2551ZM40.3881 24.4343C40.3955 24.3087 40.4014 24.183 40.4061 24.0572C40.5254 24.0546 40.6448 24.0302 40.7462 23.9667C40.8536 23.8994 40.9305 23.7858 40.9835 23.675C41.0542 23.5269 41.0892 23.3624 41.0997 23.1999C41.1089 23.0584 41.1012 22.9124 41.0624 22.7752C41.0341 22.6748 40.9874 22.5702 40.9073 22.4984C40.844 22.4417 40.7696 22.4062 40.6827 22.4044C40.5995 22.4027 40.526 22.4303 40.4637 22.4836C40.3864 22.5496 40.3335 22.6613 40.2983 22.7535C40.2354 22.9185 40.1882 23.1127 40.1388 23.283C40.0886 23.4563 40.0179 23.6855 39.923 23.841C39.8531 23.9555 39.7632 24.0594 39.6415 24.1237C39.5349 24.1801 39.4216 24.1992 39.3014 24.1843C39.1641 24.1673 39.0464 24.1088 38.9442 24.019C38.8294 23.918 38.7607 23.7886 38.7197 23.6449C38.6721 23.4779 38.6606 23.3058 38.6727 23.1333C38.6856 22.9486 38.7209 22.7653 38.7963 22.5946C38.8603 22.4496 38.951 22.3243 39.0846 22.2324C39.2102 22.146 39.3495 22.1001 39.5032 22.0941C39.5112 22.218 39.5178 22.3419 39.5231 22.466C39.3703 22.48 39.2358 22.535 39.1382 22.6534C39.0295 22.7854 38.995 22.9752 38.9837 23.1395C38.9729 23.2949 38.9739 23.5013 39.0584 23.6393C39.1183 23.7371 39.202 23.8095 39.322 23.8219C39.4183 23.8318 39.4999 23.8011 39.5673 23.734C39.6722 23.6297 39.7666 23.307 39.8046 23.1685C39.8601 22.9663 39.9211 22.7109 40.0051 22.5195C40.0673 22.3778 40.1556 22.2314 40.2815 22.1348C40.392 22.0501 40.5168 22.0082 40.6574 22.0082C40.8077 22.0082 40.9387 22.0619 41.0544 22.1534C41.1927 22.2628 41.2809 22.4147 41.3367 22.5774C41.4052 22.7776 41.4244 22.9898 41.411 23.1996C41.3958 23.4391 41.3514 23.694 41.2464 23.9129C41.1645 24.0838 41.0487 24.2278 40.8817 24.3266C40.7289 24.4169 40.5658 24.4518 40.3881 24.4343V24.4343Z" fill="#2B2A29"/>
<path fill-rule="evenodd" clip-rule="evenodd" d="M21.3271 24.8823H12.5147C12.5147 19.6515 16.4602 15.4111 21.3271 15.4111C26.194 15.4111 30.1395 19.6515 30.1395 24.8823H21.3271Z" fill="#FEFEFE" stroke="#2B2A29" stroke-width="0.7056" stroke-miterlimit="22.9256"/>
<path fill-rule="evenodd" clip-rule="evenodd" d="M24.3435 21.8324C25.478 22.4 27.0419 22.3432 28.1578 21.7626C28.5754 21.5453 29.0257 21.2219 29.3874 20.9264C30.2368 23.345 31.781 29.3813 27.8605 30.2832C27.1476 30.4472 26.2686 30.3236 25.5306 30.2999C22.5385 30.2035 19.5431 30.2916 16.5514 30.3543C11.133 30.4678 11.5347 25.8674 12.7703 22.2607C12.8145 22.1314 13.3275 20.7403 13.3604 20.7863C13.8866 21.5224 15.1082 21.8049 15.9789 21.7993C17.3947 21.7902 18.3714 21.2452 19.7166 21.0621C21.3415 20.8407 22.9082 21.0779 24.3435 21.8324V21.8324Z" fill="#7FA91F" stroke="#7FA91F" stroke-width="0.7056" stroke-miterlimit="22.9256"/>
<path fill-rule="evenodd" clip-rule="evenodd" d="M20.7849 13.7286V9.83484H18.2979L18.2709 9.04554H22.2986V13.7549L20.7849 13.7286Z" fill="#FEFEFE" stroke="#2B2A29" stroke-width="0.7056" stroke-miterlimit="22.9256"/>
<path d="M24.6383 13.5037H18.0967V16.082H24.6383V13.5037Z" fill="#FEFEFE" stroke="#2B2A29" stroke-width="0.7056" stroke-miterlimit="22.9256"/>
<path d="M12.7707 9.39709H11.4305" stroke="#2B2A29" stroke-width="0.7056" stroke-miterlimit="22.9256"/>
<path d="M14.3688 9.39709H13.2778" stroke="#2B2A29" stroke-width="0.7056" stroke-miterlimit="22.9256"/>
<path d="M16.0861 9.39709H14.9042" stroke="#2B2A29" stroke-width="0.7056" stroke-miterlimit="22.9256"/>
<path d="M17.5616 9.39709H16.5866" stroke="#2B2A29" stroke-width="0.7056" stroke-miterlimit="22.9256"/>
<path d="M14.8702 10.8315L13.5129 11.2321" stroke="#2B2A29" stroke-width="0.7056" stroke-miterlimit="22.9256"/>
<path d="M16.3564 10.4238L15.3595 10.718" stroke="#2B2A29" stroke-width="0.7056" stroke-miterlimit="22.9256"/>
<path d="M17.5616 10.0371L16.7323 10.2818" stroke="#2B2A29" stroke-width="0.7056" stroke-miterlimit="22.9256"/>
<path d="M15.0903 7.43133L13.8439 6.77239" stroke="#2B2A29" stroke-width="0.7056" stroke-miterlimit="22.9256"/>
<path d="M16.4323 8.17466L15.5169 7.69066" stroke="#2B2A29" stroke-width="0.7056" stroke-miterlimit="22.9256"/>
<path d="M17.5616 8.73796L16.8001 8.33535" stroke="#2B2A29" stroke-width="0.7056" stroke-miterlimit="22.9256"/>
</svg>
