<svg width="47" height="47" viewBox="0 0 47 47" fill="none" xmlns="http://www.w3.org/2000/svg">
<path d="M32.9849 28.9633L17.1765 17.8539C17.1765 17.8539 15.0781 16.6341 16.2887 14.7961" stroke="#2B2A29" stroke-width="0.7056" stroke-miterlimit="22.9256"/>
<path d="M32.9782 28.9731L17.1697 17.8637C17.1697 17.8637 15.338 16.2585 13.7354 18.4869" stroke="#2B2A29" stroke-width="0.7056" stroke-miterlimit="22.9256"/>
<path d="M11.5613 21.2863C12.4426 21.9057 13.6289 21.7256 14.211 20.8841C14.7931 20.0427 14.5506 18.8585 13.6694 18.2392C12.7881 17.6199 11.6018 17.8 11.0197 18.6414C10.4376 19.4829 10.6801 20.667 11.5613 21.2863Z" fill="#7FA91F"/>
<path fill-rule="evenodd" clip-rule="evenodd" d="M29.0394 15.8029L30.5621 19.5068L32.0848 23.2107L29.6982 26.7273L27.3115 30.2439L23.4023 30.0567L19.4929 29.8694L17.9703 26.1655L16.4476 22.4616L18.8342 18.945L21.2208 15.4284L25.1301 15.6157L29.0394 15.8029Z" fill="#FEFEFE" stroke="#2B2A29" stroke-width="0.7056" stroke-miterlimit="22.9256"/>
<path d="M9.1895 41.702L10.8246 39.143L11.7355 39.7978C11.8956 39.9128 12.0127 40.0091 12.0873 40.0862C12.1924 40.1922 12.2663 40.3036 12.3093 40.4197C12.352 40.5364 12.364 40.665 12.3455 40.8056C12.327 40.9461 12.2769 41.0796 12.1959 41.2065C12.0573 41.4233 11.8746 41.5606 11.6478 41.6165C11.4212 41.6737 11.1368 41.5788 10.7954 41.3333L10.1765 40.8885L9.50964 41.9321L9.1895 41.702V41.702ZM10.3683 40.5883L10.9917 41.0363C11.1984 41.1849 11.3703 41.2494 11.5094 41.2303C11.6481 41.2108 11.7644 41.1275 11.8591 40.9792C11.9273 40.8726 11.9606 40.7627 11.9582 40.6497C11.9559 40.5368 11.9208 40.4377 11.8533 40.3535C11.8089 40.2999 11.7144 40.2207 11.5701 40.1169L10.9529 39.6733L10.3683 40.5883V40.5883ZM10.9308 42.9372L13.3017 40.7834L13.6745 40.9975L13.3304 44.315L12.9443 44.0934L13.0684 43.0992L11.9891 42.4795L11.2906 43.1437L10.9308 42.9372V42.9372ZM12.238 42.2444L13.1114 42.7459L13.2289 41.8389C13.2652 41.5635 13.301 41.3394 13.3348 41.1657C13.2092 41.3227 13.0733 41.4697 12.9263 41.6078L12.238 42.2444ZM13.6284 44.4366L14.6099 41.5259L15.8262 41.9872C16.0708 42.08 16.2478 42.1769 16.3573 42.2773C16.4669 42.3777 16.5374 42.5083 16.5689 42.6693C16.6003 42.8303 16.5887 42.991 16.5347 43.1508C16.4651 43.3575 16.3431 43.5076 16.1695 43.6015C15.9959 43.6953 15.7716 43.7111 15.4954 43.6499C15.5754 43.7353 15.6318 43.8117 15.6656 43.878C15.7369 44.0212 15.7936 44.1887 15.8352 44.3794L16.0425 45.3522L15.589 45.1802L15.4304 44.4368C15.3841 44.2214 15.3416 44.0547 15.3046 43.9359C15.2669 43.817 15.2273 43.7293 15.1855 43.6715C15.1442 43.6146 15.0973 43.5677 15.0461 43.5315C15.0082 43.5071 14.9427 43.477 14.8488 43.4414L14.4284 43.2819L13.9926 44.5747L13.6284 44.4366V44.4366ZM14.5408 42.9486L15.3202 43.2442C15.4863 43.3072 15.6215 43.3378 15.7271 43.3366C15.8325 43.3361 15.923 43.3047 15.9981 43.2423C16.0737 43.1808 16.1271 43.1032 16.1589 43.009C16.2053 42.8715 16.197 42.74 16.133 42.6156C16.069 42.4912 15.9357 42.391 15.7332 42.3142L14.8657 41.9851L14.5408 42.9486V42.9486ZM16.0558 45.4427L17.8326 42.7205L18.2445 42.827L18.7068 46.1283L18.2804 46.018L18.162 45.0231L16.9697 44.7147L16.4533 45.5455L16.0558 45.4427ZM17.154 44.4203L18.119 44.6698L18.0151 43.7609C17.9843 43.4848 17.9652 43.2584 17.9563 43.0813C17.8724 43.267 17.7761 43.4458 17.6671 43.619L17.154 44.4203ZM18.9899 46.1769L19.3775 43.1132L20.4614 43.2674C20.682 43.2988 20.8549 43.3547 20.9809 43.4357C21.1062 43.5167 21.1983 43.6271 21.2573 43.7669C21.3171 43.9061 21.3377 44.0463 21.3198 44.1875C21.3033 44.318 21.254 44.4365 21.1729 44.5426C21.0917 44.6486 20.979 44.7278 20.8348 44.7798C21.0028 44.8589 21.1256 44.9708 21.2024 45.1153C21.2801 45.2592 21.3075 45.4206 21.285 45.5989C21.2668 45.743 21.221 45.8722 21.1482 45.9875C21.0754 46.1027 20.9929 46.1875 20.9003 46.2426C20.8079 46.2969 20.6959 46.3326 20.5652 46.3488C20.4337 46.365 20.2763 46.36 20.092 46.3338L18.9899 46.1769V46.1769ZM19.5979 44.4557L20.2225 44.5446C20.3919 44.5687 20.5152 44.5739 20.5914 44.5608C20.6929 44.544 20.7727 44.5031 20.8308 44.4388C20.8889 44.3744 20.925 44.2888 20.9386 44.1811C20.9515 44.0791 20.94 43.986 20.9034 43.9024C20.8675 43.8181 20.8083 43.7553 20.7266 43.7146C20.6448 43.674 20.5 43.6388 20.293 43.6094L19.7153 43.5272L19.5979 44.4557V44.4557ZM19.4187 45.8721L20.1381 45.9744C20.2618 45.992 20.3493 45.9994 20.401 45.9966C20.4904 45.9926 20.5679 45.9753 20.6321 45.9445C20.6962 45.9137 20.7518 45.8636 20.7996 45.7941C20.8474 45.7247 20.8771 45.6411 20.8895 45.5433C20.904 45.4286 20.889 45.3255 20.8439 45.2327C20.7996 45.14 20.7304 45.0699 20.6366 45.0217C20.5434 44.9736 20.4043 44.9364 20.2208 44.9102L19.5524 44.8151L19.4187 45.8721V45.8721ZM21.732 46.5326L21.8093 43.4425L23.9131 43.5017L23.904 43.8642L22.1868 43.8159L22.163 44.7654L23.7704 44.8106L23.7613 45.1732L22.154 45.1279L22.1276 46.181L23.914 46.2313L23.9049 46.5938L21.732 46.5326ZM24.434 46.5836L24.1997 43.5023L24.5947 43.4685L26.3028 45.7567L26.1189 43.3382L26.4881 43.3066L26.7224 46.3878L26.3274 46.4216L24.6194 44.1335L24.8032 46.5519L24.434 46.5836ZM28.4798 46.051L27.7881 43.0481L29.698 42.5533L29.7791 42.9055L28.2449 43.3031L28.4603 44.2383L29.7889 43.8941L29.8701 44.2464L28.5415 44.5907L28.8554 45.9537L28.4798 46.051V46.051ZM30.8633 45.3725L29.8807 42.4622L31.0968 42.0003C31.3414 41.9074 31.5362 41.8632 31.6809 41.8671C31.8257 41.871 31.9583 41.9246 32.0789 42.0278C32.1995 42.131 32.2866 42.263 32.3406 42.4229C32.4104 42.6295 32.4059 42.8276 32.3279 43.017C32.2498 43.2064 32.0859 43.3695 31.8358 43.5081C31.9487 43.5203 32.038 43.5414 32.1038 43.5699C32.2446 43.6326 32.3886 43.7239 32.5348 43.8434L33.277 44.4557L32.8235 44.6279L32.2562 44.1601C32.0916 44.0247 31.959 43.9245 31.8594 43.8576C31.7591 43.791 31.676 43.7499 31.6092 43.7333C31.5431 43.7171 31.4789 43.7125 31.4177 43.7189C31.3738 43.7256 31.3051 43.7464 31.2112 43.782L30.7909 43.9416L31.2273 45.2342L30.8633 45.3725V45.3725ZM30.6784 43.6083L31.4576 43.3124C31.6237 43.2493 31.7466 43.182 31.8275 43.11C31.9086 43.0387 31.9599 42.9535 31.9805 42.8547C32.0021 42.7563 31.9971 42.6604 31.9653 42.5662C31.9188 42.4287 31.8338 42.3326 31.7099 42.2795C31.5861 42.2265 31.423 42.2387 31.2205 42.3156L30.3532 42.645L30.6784 43.6083V43.6083ZM33.6275 44.2609L32.3697 41.4724L34.2681 40.5091L34.4157 40.8362L32.866 41.6225L33.2526 42.4794L34.703 41.7433L34.8506 42.0705L33.4001 42.8065L33.8288 43.7568L35.4408 42.9388L35.5884 43.2659L33.6275 44.2609V44.2609ZM36.0337 42.9214L34.3975 40.3633L36.139 39.1103L36.331 39.4104L34.9094 40.4332L35.4121 41.2192L36.7428 40.2618L36.9348 40.5619L35.6041 41.5193L36.1617 42.3911L37.6406 41.3271L37.8325 41.6272L36.0337 42.9214V42.9214Z" fill="#2B2A29"/>
<path d="M6.99894 40.3168C-1.89288 31.2683 -1.70779 16.5526 7.41236 7.44843C16.5325 -1.65577 31.1341 -1.70098 40.026 7.34745C48.9178 16.3959 48.7327 31.1115 39.6125 40.2157" stroke="#2B2A29" stroke-width="0.7056" stroke-miterlimit="22.9256"/>
<path d="M15.8629 15.035C16.7442 15.6543 17.9305 15.4742 18.5126 14.6327C19.0947 13.7913 18.8522 12.6071 17.9709 11.9878C17.0897 11.3685 15.9033 11.5486 15.3212 12.39C14.7391 13.2315 14.9816 14.4157 15.8629 15.035Z" fill="#7FA91F"/>
<path d="M32.7689 30.8648C33.6502 31.4841 34.8365 31.304 35.4186 30.4625C36.0007 29.6211 35.7582 28.4369 34.877 27.8176C33.9957 27.1983 32.8094 27.3784 32.2273 28.2198C31.6452 29.0613 31.8877 30.2455 32.7689 30.8648Z" fill="#7FA91F"/>
</svg>
