<svg width="44" height="41" viewBox="0 0 44 41" fill="none" xmlns="http://www.w3.org/2000/svg">
<path d="M21.8998 33.9096C25.4222 33.9096 28.2777 27.362 28.2777 19.2852C28.2777 11.2083 25.4222 4.66073 21.8998 4.66073C18.3774 4.66073 15.5219 11.2083 15.5219 19.2852C15.5219 27.362 18.3774 33.9096 21.8998 33.9096Z" stroke="#2B2A29" stroke-width="0.7056" stroke-miterlimit="22.9256"/>
<path d="M8.85009 29.6261C11.3408 31.5998 19.2025 28.57 26.4097 22.8588C33.6169 17.1476 37.4404 10.9177 34.9497 8.94401C32.459 6.97029 24.5972 10.0001 17.39 15.7113C10.1828 21.4225 6.35937 27.6524 8.85009 29.6261Z" stroke="#2B2A29" stroke-width="1.62556" stroke-miterlimit="22.9256"/>
<path d="M34.9497 29.6261C37.4404 27.6524 33.6169 21.4225 26.4097 15.7113C19.2025 10.0001 11.3408 6.97029 8.85008 8.94401C6.35936 10.9177 10.1828 17.1476 17.39 22.8588C24.5972 28.57 32.459 31.5998 34.9497 29.6261Z" stroke="#2B2A29" stroke-width="1.62556" stroke-miterlimit="22.9256"/>
<path d="M9.03294 35.8443L9.32741 36.0082C9.26432 36.1299 9.23258 36.2433 9.23196 36.3488C9.23175 36.4538 9.26714 36.5632 9.33819 36.6772C9.40965 36.7907 9.50883 36.891 9.63564 36.9774C9.74845 37.0542 9.85902 37.1051 9.96819 37.1299C10.0774 37.1547 10.1726 37.1517 10.2546 37.1214C10.3364 37.091 10.4011 37.0413 10.4476 36.9723C10.4948 36.9023 10.5158 36.8274 10.5108 36.7471C10.5055 36.6673 10.468 36.5777 10.3988 36.4779C10.3545 36.4142 10.2466 36.2874 10.0747 36.0979C9.90286 35.9085 9.79075 35.7643 9.73818 35.6645C9.66965 35.5355 9.63788 35.4117 9.64194 35.2933C9.64542 35.1745 9.68246 35.0633 9.75189 34.9604C9.8287 34.8465 9.93248 34.7624 10.0626 34.7078C10.1931 34.6526 10.3365 34.6412 10.4942 34.6739C10.6514 34.7063 10.8054 34.7738 10.9556 34.8761C11.1209 34.9886 11.249 35.1148 11.3391 35.2546C11.4294 35.3939 11.4734 35.5389 11.4711 35.6898C11.469 35.8401 11.4258 35.9829 11.3423 36.1181L11.0436 35.9468C11.124 35.795 11.1448 35.6528 11.1056 35.5209C11.0667 35.3885 10.9611 35.264 10.7895 35.1471C10.6107 35.0254 10.458 34.9694 10.332 34.9797C10.2061 34.9899 10.1114 35.0413 10.0487 35.1343C9.9945 35.2147 9.97888 35.3009 10.0013 35.3924C10.0236 35.4831 10.1355 35.6378 10.339 35.8556C10.5421 36.074 10.6749 36.2337 10.7368 36.3354C10.8257 36.4836 10.8708 36.6249 10.8703 36.7594C10.8702 36.8935 10.8294 37.0204 10.7483 37.1406C10.6677 37.2602 10.5585 37.3489 10.4192 37.4081C10.28 37.4672 10.1274 37.483 9.96069 37.4548C9.7939 37.4266 9.63117 37.3585 9.47163 37.2498C9.26995 37.1125 9.1211 36.9677 9.02474 36.8159C8.92783 36.6638 8.88115 36.5024 8.884 36.3306C8.88599 36.1589 8.936 35.997 9.03294 35.8443V35.8443ZM13.6327 36.3172L13.9474 36.4885L13.2058 37.8651C13.0766 38.1048 12.947 38.2804 12.8175 38.3922C12.6878 38.5032 12.5287 38.5652 12.3409 38.5771C12.1526 38.5887 11.9448 38.5331 11.7162 38.4087C11.4948 38.2882 11.3337 38.1511 11.2345 37.9973C11.1347 37.8433 11.094 37.6777 11.1124 37.499C11.1308 37.3203 11.2078 37.1046 11.3438 36.8521L12.0855 35.4754L12.4003 35.6467L11.6588 37.0228C11.5473 37.2298 11.4841 37.3934 11.4696 37.5118C11.4548 37.6308 11.4791 37.7422 11.5439 37.8457C11.608 37.9495 11.7074 38.038 11.8416 38.111C12.0713 38.236 12.2637 38.2725 12.4179 38.2208C12.5725 38.1685 12.7299 37.993 12.8913 37.6933L13.6327 36.3172V36.3172ZM13.2178 39.0213L14.1261 36.4689L14.4631 36.59L13.6614 38.843L14.9101 39.2917L14.8035 39.5912L13.2178 39.0213V39.0213ZM15.1659 39.9862L15.805 37.3526L17.5729 37.7858L17.4979 38.0948L16.0778 37.7468L15.8787 38.5671L17.1086 38.8684L17.0336 39.1774L15.8038 38.876L15.5137 40.0714L15.1659 39.9862V39.9862ZM16.8783 40.5176L18.2626 37.9693L18.6516 38.0217L19.3813 40.8551L18.9787 40.8008L18.7781 39.9449L17.6523 39.7931L17.2536 40.5682L16.8783 40.5176V40.5176ZM17.7948 39.5182L18.7059 39.641L18.5265 38.8586C18.4727 38.6209 18.4343 38.4253 18.4098 38.2718C18.3497 38.4419 18.2776 38.6073 18.1932 38.7691L17.7948 39.5182V39.5182ZM20.0928 40.8852L20.156 38.4933L19.2672 38.4696L19.2756 38.1517L21.411 38.2086L21.4026 38.5265L20.5138 38.5028L20.4506 40.8947L20.0928 40.8852V40.8852ZM21.7154 40.9108L21.4986 38.2088L23.4401 38.0515L23.4655 38.3685L21.8808 38.4969L21.9474 39.3271L23.4308 39.207L23.4562 39.5239L21.9728 39.6441L22.0467 40.5649L23.6953 40.4313L23.7207 40.7483L21.7154 40.9108V40.9108ZM25.2408 40.4447L24.6006 37.8114L26.3683 37.3775L26.4434 37.6864L25.0234 38.035L25.2228 38.8552L26.4525 38.5533L26.5276 38.8622L25.2979 39.1641L25.5885 40.3594L25.2408 40.4447V40.4447ZM27.4469 39.8497L26.5374 37.2977L27.663 36.8926C27.8894 36.8111 28.0697 36.7724 28.2036 36.7758C28.3375 36.7792 28.4603 36.8262 28.5719 36.9167C28.6836 37.0072 28.7642 37.123 28.8141 37.2632C28.8787 37.4444 28.8746 37.6181 28.8024 37.7842C28.7302 37.9502 28.5784 38.0933 28.3469 38.2148C28.4514 38.2255 28.534 38.244 28.595 38.269C28.7253 38.324 28.8585 38.404 28.9939 38.5088L29.6808 39.0458L29.2611 39.1968L28.7361 38.7866C28.5837 38.6678 28.461 38.5799 28.3687 38.5213C28.2759 38.4629 28.199 38.4269 28.1371 38.4123C28.0761 38.3981 28.0166 38.394 27.9599 38.3997C27.9193 38.4055 27.8558 38.4237 27.7688 38.455L27.3799 38.595L27.7838 39.7284L27.4469 39.8497V39.8497ZM27.2757 38.3027L27.9969 38.0432C28.1506 37.9878 28.2643 37.9288 28.3392 37.8657C28.4143 37.8032 28.4617 37.7285 28.4809 37.6418C28.5008 37.5556 28.4962 37.4714 28.4668 37.3889C28.4237 37.2683 28.3451 37.184 28.2304 37.1374C28.1158 37.0909 27.9649 37.1016 27.7775 37.1691L26.9747 37.458L27.2757 38.3027V38.3027ZM30.0052 38.8749L28.841 36.4296L30.5981 35.5849L30.7347 35.8718L29.3005 36.5613L29.6582 37.3127L31.0006 36.6672L31.1372 36.9541L29.7947 37.5995L30.1915 38.4329L31.6834 37.7156L31.8201 38.0024L30.0052 38.8749V38.8749ZM32.2322 37.7003L30.7178 35.457L32.3297 34.3582L32.5074 34.6214L31.1916 35.5183L31.657 36.2076L32.8885 35.3681L33.0662 35.6312L31.8346 36.4708L32.3507 37.2353L33.7194 36.3022L33.897 36.5654L32.2322 37.7003V37.7003Z" fill="#2B2A29"/>
<path d="M6.61604 35.4162C-1.61362 27.4814 -1.44231 14.5769 6.99867 6.59324C15.4397 -1.39044 28.9539 -1.43009 37.1836 6.50469C45.4133 14.4395 45.242 27.344 36.801 35.3276" stroke="#2B2A29" stroke-width="0.7056" stroke-miterlimit="22.9256"/>
<path d="M11.7153 10.0785C12.6809 10.7023 13.9808 10.5209 14.6186 9.67337C15.2565 8.8258 14.9907 7.63302 14.0251 7.00922C13.0595 6.38542 11.7596 6.56681 11.1217 7.41437C10.4839 8.26194 10.7496 9.45472 11.7153 10.0785Z" fill="#7FA91F"/>
<path d="M29.3629 9.87535C30.3286 10.4992 31.6284 10.3178 32.2663 9.4702C32.9041 8.62264 32.6384 7.42986 31.6728 6.80605C30.7071 6.18225 29.4072 6.36364 28.7694 7.21121C28.1316 8.05877 28.3973 9.25155 29.3629 9.87535Z" fill="#7FA91F"/>
<path d="M24.1015 33.2334C25.0671 33.8572 26.367 33.6758 27.0049 32.8283C27.6427 31.9807 27.377 30.7879 26.4113 30.1641C25.4457 29.5403 24.1458 29.7217 23.508 30.5693C22.8701 31.4168 23.1359 32.6096 24.1015 33.2334Z" fill="#7FA91F"/>
</svg>
