<svg xmlns="http://www.w3.org/2000/svg" width="163.006" height="150.579" viewBox="0 0 163.006 150.579">
  <g id="Group_649" data-name="Group 649" transform="translate(0 0.12)">
    <g id="Group_4" data-name="Group 4" transform="translate(0 59.337)">
      <g id="Group_1" data-name="Group 1" transform="translate(0 0)">
        <path id="Path_1" data-name="Path 1" d="M247.439,1254.21a14.981,14.981,0,0,1-6.4-1.343c-3.978-1.89-6.028-5.789-4.768-9.071l.5.193c-1.138,2.968.837,6.655,4.5,8.394a16.475,16.475,0,0,0,12.046.31,16.027,16.027,0,0,0,9.23-7.484c1.749-3.415,1.738-7.347,1.73-10.814-.07-27.378-.1-50.036-.1-71.305h.536c0,21.269.032,43.926.1,71.3.009,3.528.02,7.528-1.788,11.06a16.563,16.563,0,0,1-9.535,7.747A18.923,18.923,0,0,1,247.439,1254.21Z" transform="translate(-235.902 -1163.089)" fill="#227c26"/>
      </g>
      <g id="Group_2" data-name="Group 2" transform="translate(69.504)">
        <rect id="Rectangle_1" data-name="Rectangle 1" width="0.536" height="56.889" fill="#227c26"/>
      </g>
      <g id="Group_3" data-name="Group 3" transform="translate(28.556 27.701)">
        <rect id="Rectangle_2" data-name="Rectangle 2" width="41.216" height="0.536" fill="#227c26"/>
      </g>
    </g>
    <g id="Group_8" data-name="Group 8" transform="translate(92.965 59.337)">
      <g id="Group_5" data-name="Group 5" transform="translate(41.131 0)">
        <path id="Path_2" data-name="Path 2" d="M352.806,1254.21a18.909,18.909,0,0,1-6.047-1.01,16.558,16.558,0,0,1-9.535-7.747c-1.808-3.53-1.8-7.531-1.789-11.06.069-27.308.1-49.965.1-71.3h.536c0,21.339-.032,44-.1,71.305-.009,3.468-.019,7.4,1.729,10.814a16.031,16.031,0,0,0,9.23,7.484,16.476,16.476,0,0,0,12.046-.31c3.66-1.739,5.637-5.427,4.5-8.394l.5-.193c1.258,3.282-.791,7.181-4.768,9.071A14.992,14.992,0,0,1,352.806,1254.21Z" transform="translate(-335.434 -1163.089)" fill="#227c26"/>
      </g>
      <g id="Group_6" data-name="Group 6">
        <rect id="Rectangle_3" data-name="Rectangle 3" width="0.536" height="56.889" fill="#227c26"/>
      </g>
      <g id="Group_7" data-name="Group 7" transform="translate(0.268 27.701)">
        <rect id="Rectangle_4" data-name="Rectangle 4" width="41.216" height="0.536" fill="#227c26"/>
      </g>
    </g>
    <g id="Group_9" data-name="Group 9" transform="translate(81.235 0.239)">
      <line id="Line_1" data-name="Line 1" y1="104.521" transform="translate(0.268)" fill="#227c26"/>
      <rect id="Rectangle_5" data-name="Rectangle 5" width="0.536" height="104.521" fill="#227c26"/>
    </g>
    <g id="Group_17" data-name="Group 17" transform="translate(39.762)">
      <g id="Group_10" data-name="Group 10" transform="translate(0 17.638)">
        <path id="Path_3" data-name="Path 3" d="M265.748,1132.346c41.625,1.151,41.306,22.98,41.306,22.98S281.881,1163.293,265.748,1132.346Z" transform="translate(-265.299 -1132.066)" fill="#80a921" stroke="#fff" stroke-miterlimit="10" stroke-width="0.149"/>
        <path id="Path_4" data-name="Path 4" d="M299.76,1156.58a32.9,32.9,0,0,1-7.252-.806c-7.636-1.724-18.5-7.155-26.882-23.232l-.21-.4.455.012c11.921.33,27.921,2.681,36.453,12.01,5.137,5.615,5.118,11.017,5.114,11.243l0,.194-.185.058A27.623,27.623,0,0,1,299.76,1156.58Zm-33.446-23.88c4.617,8.707,12.885,19.52,26.312,22.553a30.956,30.956,0,0,0,14.27-.054,17.86,17.86,0,0,0-5-10.711C297.287,1139.467,287.375,1133.365,266.314,1132.7Z" transform="translate(-265.415 -1132.138)" fill="#fff" stroke="#fff" stroke-miterlimit="10" stroke-width="0.149"/>
      </g>
      <g id="Group_11" data-name="Group 11" transform="translate(41.486 17.605)">
        <path id="Path_5" data-name="Path 5" d="M337.685,1132.321c-41.624,1.186-41.277,23.014-41.277,23.014S321.59,1163.281,337.685,1132.321Z" transform="translate(-296.139 -1132.041)" fill="#80a921" stroke="#fff" stroke-miterlimit="10" stroke-width="0.149"/>
        <path id="Path_6" data-name="Path 6" d="M303.861,1156.583a27.6,27.6,0,0,1-7.465-.92l-.183-.058,0-.194c0-.227-.028-5.628,5.1-11.247,8.52-9.335,24.517-11.7,36.438-12.038l.455-.014-.21.4a50.345,50.345,0,0,1-13.312,16.745,34.221,34.221,0,0,1-13.541,6.51A32.993,32.993,0,0,1,303.861,1156.583Zm-7.111-1.375a31.01,31.01,0,0,0,14.3.035c7.452-1.7,18.026-6.992,26.255-22.567-11.764.382-27.313,2.771-35.6,11.849A17.791,17.791,0,0,0,296.75,1155.208Z" transform="translate(-296.208 -1132.113)" fill="#fff" stroke="#fff" stroke-miterlimit="10" stroke-width="0.149"/>
      </g>
      <g id="Group_12" data-name="Group 12" transform="translate(14.726 6.278)">
        <path id="Path_7" data-name="Path 7" d="M276.547,1123.993c37.7,14.267,26.758,34.234,26.758,34.234S276.276,1157.563,276.547,1123.993Z" transform="translate(-276.276 -1123.607)" fill="#227c26" stroke="#fff" stroke-miterlimit="10" stroke-width="0.149"/>
        <path id="Path_8" data-name="Path 8" d="M303.53,1158.6l-.163,0a29.218,29.218,0,0,1-13.62-4.571,26.97,26.97,0,0,1-9.3-10.3c-2.781-5.328-4.159-11.935-4.1-19.638l0-.384.36.136c14.94,5.653,24.111,12.842,27.261,21.369a17.083,17.083,0,0,1-.361,13.245Zm-26.649-34.118c-.013,7.448,1.346,13.838,4.039,19a26.428,26.428,0,0,0,9.12,10.094,28.838,28.838,0,0,0,13.173,4.477,16.7,16.7,0,0,0,.249-12.667C300.389,1137.083,291.446,1130.052,276.881,1124.481Z" transform="translate(-276.346 -1123.706)" fill="#fff" stroke="#fff" stroke-miterlimit="10" stroke-width="0.149"/>
      </g>
      <g id="Group_13" data-name="Group 13" transform="translate(40.011 6.257)">
        <path id="Path_9" data-name="Path 9" d="M323.506,1123.977c-37.687,14.3-26.716,34.255-26.716,34.255S323.819,1157.547,323.506,1123.977Z" transform="translate(-295.047 -1123.591)" fill="#227c26" stroke="#fff" stroke-miterlimit="10" stroke-width="0.149"/>
        <path id="Path_10" data-name="Path 10" d="M296.7,1158.6l-.078-.143a17.084,17.084,0,0,1-.376-13.248c3.139-8.528,12.3-15.724,27.232-21.388l.358-.136,0,.384c.071,7.7-1.3,14.309-4.073,19.64a26.953,26.953,0,0,1-9.291,10.3,29.2,29.2,0,0,1-13.614,4.582Zm26.607-34.139c-14.565,5.584-23.5,12.628-26.559,20.934a16.654,16.654,0,0,0,.269,12.657,28.864,28.864,0,0,0,13.188-4.5,26.422,26.422,0,0,0,9.094-10.1C321.982,1138.292,323.33,1131.9,323.307,1124.465Z" transform="translate(-295.113 -1123.69)" fill="#fff" stroke="#fff" stroke-miterlimit="10" stroke-width="0.149"/>
      </g>
      <g id="Group_14" data-name="Group 14" transform="translate(23.864 1.835)">
        <path id="Path_11" data-name="Path 11" d="M286.055,1120.72c31.86,21.632,14.893,38.644,14.893,38.644S275.048,1153.1,286.055,1120.72Z" transform="translate(-283.057 -1120.3)" fill="#80a921" stroke="#fff" stroke-miterlimit="10" stroke-width="0.149"/>
        <path id="Path_12" data-name="Path 12" d="M301.1,1159.769l-.147-.035c-.1-.025-9.782-2.46-14.806-11.595-3.933-7.151-4.026-16.369-.278-27.4l.113-.334.291.2c12.085,8.206,18.626,16.7,19.441,25.234a18.358,18.358,0,0,1-4.508,13.821Zm-14.836-38.52c-3.582,10.728-3.465,19.684.349,26.626,4.567,8.311,13.087,10.953,14.319,11.3a17.867,17.867,0,0,0,4.248-13.292C304.385,1137.58,298.021,1129.294,286.266,1121.249Z" transform="translate(-283.128 -1120.408)" fill="#fff" stroke="#fff" stroke-miterlimit="10" stroke-width="0.149"/>
      </g>
      <g id="Group_15" data-name="Group 15" transform="translate(36.96 1.823)">
        <path id="Path_13" data-name="Path 13" d="M312.42,1120.711c-31.833,21.658-14.845,38.655-14.845,38.655S323.466,1153.078,312.42,1120.711Z" transform="translate(-292.78 -1120.291)" fill="#80a921" stroke="#fff" stroke-miterlimit="10" stroke-width="0.149"/>
        <path id="Path_14" data-name="Path 14" d="M297.561,1159.771l-.106-.106a18.362,18.362,0,0,1-4.524-13.823c.806-8.538,7.334-17.031,19.407-25.245l.291-.2.113.333c3.764,11.027,3.682,20.245-.244,27.4-5.013,9.136-14.695,11.58-14.792,11.6Zm14.788-38.532c-11.743,8.054-18.1,16.344-18.885,24.641a17.867,17.867,0,0,0,4.265,13.293c1.229-.343,9.745-2.993,14.3-11.306C315.839,1140.923,315.944,1131.965,312.348,1121.24Z" transform="translate(-292.849 -1120.399)" fill="#fff" stroke="#fff" stroke-miterlimit="10" stroke-width="0.149"/>
      </g>
      <g id="Group_16" data-name="Group 16" transform="translate(31.504)">
        <path id="Path_15" data-name="Path 15" d="M298.955,1119.366c22.48,28.275.024,40.468.024,40.468S276.546,1147.659,298.955,1119.366Z" transform="translate(-288.729 -1118.935)" fill="#227c26" stroke="#fff" stroke-miterlimit="10" stroke-width="0.149"/>
        <path id="Path_16" data-name="Path 16" d="M299.049,1160.251l-.127-.07a21.354,21.354,0,0,1-9.707-13.51c-1.644-8.036,1.584-17.241,9.6-27.359l.21-.266.21.266c8.039,10.11,11.285,19.312,9.649,27.348a21.354,21.354,0,0,1-9.706,13.521Zm-.024-40.341c-7.759,9.883-10.882,18.85-9.284,26.654a20.778,20.778,0,0,0,9.308,13.073,20.8,20.8,0,0,0,9.311-13.091C309.944,1138.742,306.8,1129.782,299.025,1119.91Z" transform="translate(-288.799 -1119.046)" fill="#fff" stroke="#fff" stroke-miterlimit="10" stroke-width="0.149"/>
      </g>
    </g>
    <g id="Group_18" data-name="Group 18" transform="translate(93.022 48.272)">
      <path id="Path_17" data-name="Path 17" d="M324.118,1154.9c-19.582.9-19.146,11.17-19.146,11.17S316.926,1169.61,324.118,1154.9Z" transform="translate(-304.938 -1154.867)" fill="#227c26"/>
      <path id="Path_18" data-name="Path 18" d="M308.2,1166.487a12.689,12.689,0,0,1-3.229-.372l-.023-.007v-.024a6.017,6.017,0,0,1,.238-1.629,9.291,9.291,0,0,1,2-3.643,14.649,14.649,0,0,1,5.676-3.807,34.887,34.887,0,0,1,11.264-2.126l.057,0-.026.051a23.3,23.3,0,0,1-6.034,7.961,15.832,15.832,0,0,1-6.257,3.157A15.359,15.359,0,0,1,308.2,1166.487Zm-3.188-.43a14.561,14.561,0,0,0,6.839-.077,15.773,15.773,0,0,0,6.23-3.145,23.2,23.2,0,0,0,5.99-7.887,34.741,34.741,0,0,0-11.185,2.118,14.555,14.555,0,0,0-5.65,3.79,9.209,9.209,0,0,0-1.986,3.616A6.146,6.146,0,0,0,305.013,1166.057Z" transform="translate(-304.947 -1154.876)" fill="#227c26"/>
    </g>
    <g id="Group_19" data-name="Group 19" transform="translate(50.77 48.272)">
      <path id="Path_19" data-name="Path 19" d="M273.625,1154.9c19.582.9,19.147,11.17,19.147,11.17S280.817,1169.61,273.625,1154.9Z" transform="translate(-273.571 -1154.867)" fill="#227c26"/>
      <path id="Path_20" data-name="Path 20" d="M289.566,1166.487a15.359,15.359,0,0,1-3.665-.442,15.837,15.837,0,0,1-6.258-3.157,23.305,23.305,0,0,1-6.034-7.961l-.024-.051.057,0a34.87,34.87,0,0,1,11.263,2.126,14.638,14.638,0,0,1,5.676,3.807,9.273,9.273,0,0,1,2,3.643,5.993,5.993,0,0,1,.24,1.629v.024l-.023.007A12.715,12.715,0,0,1,289.566,1166.487Zm-15.872-11.538a23.212,23.212,0,0,0,5.991,7.888,15.778,15.778,0,0,0,6.232,3.143,14.542,14.542,0,0,0,6.835.077,8.3,8.3,0,0,0-2.226-5.206,14.579,14.579,0,0,0-5.652-3.786A34.752,34.752,0,0,0,273.694,1154.949Z" transform="translate(-273.585 -1154.876)" fill="#227c26"/>
    </g>
    <g id="Group_33" data-name="Group 33" transform="translate(31.68 119.525)">
      <g id="Group_28" data-name="Group 28" transform="translate(0.312)">
        <g id="Group_20" data-name="Group 20" transform="translate(0 0.522)">
          <path id="Path_21" data-name="Path 21" d="M270.418,1216.164h-6.569v3.028a4.693,4.693,0,0,1,1.645-1.536,2.294,2.294,0,0,1,.951-.19q1.989,0,2.973,2.407a5.424,5.424,0,0,1,.432,2.073,5.146,5.146,0,0,1-1.247,3.37,8.064,8.064,0,0,1-.618.693l-1.335-.982c.337-.435.718-.969,1.149-1.6a4.783,4.783,0,0,0,.73-2.707,3.189,3.189,0,0,0-.358-1.625,1.243,1.243,0,0,0-1.172-.742,2.6,2.6,0,0,0-1.5.654,4.894,4.894,0,0,0-1.187,1.341,3.124,3.124,0,0,0-.513,1.627v3.98l-1.524-1v-8.783h-.893v-1.2h.893a9.614,9.614,0,0,0-1.245-5.025,6.66,6.66,0,0,0-1.384-1.762l1.644-.023q1.368.926,2.176,3.977a11.165,11.165,0,0,1,.381,2.833h6.569Z" transform="translate(-259.648 -1208.15)" fill="#80a921"/>
        </g>
        <g id="Group_21" data-name="Group 21" transform="translate(13.081 7.332)">
          <path id="Path_22" data-name="Path 22" d="M278.19,1214.408h-1.831v2.759a4.485,4.485,0,0,0,.652.893,4.494,4.494,0,0,1-1.157,5.532,3.014,3.014,0,0,1-1.7.521,3.989,3.989,0,0,1-2.75-1.452,4.683,4.683,0,0,1-1.483-3.312,3.549,3.549,0,0,1,.481-1.7,4.579,4.579,0,0,1,1.043-1.315,2.634,2.634,0,0,1,1.765-.622,5.863,5.863,0,0,1,1.687.373c.032,0,.048-.028.048-.084v-1.592h-5.584v-1.2h8.833Zm-1.879,4.446a1.9,1.9,0,0,0-1.01-1.9,1.539,1.539,0,0,0-.641-.181,3.309,3.309,0,0,0-2.176,1.116,4.409,4.409,0,0,0-1.361,3.322,1.808,1.808,0,0,0,.88,1.547,1.43,1.43,0,0,0,.807.272,3.339,3.339,0,0,0,2.215-1.206A4.075,4.075,0,0,0,276.31,1218.854Z" transform="translate(-269.357 -1213.205)" fill="#80a921"/>
        </g>
        <g id="Group_22" data-name="Group 22" transform="translate(23.104 0.193)">
          <path id="Path_23" data-name="Path 23" d="M280.487,1213.845v12.35a1.29,1.29,0,0,1-.213-.112l-.423-.27a7.463,7.463,0,0,0-.765-.461v-11.488a8.232,8.232,0,0,0-.335-2.238,9.39,9.39,0,0,0-1.439-3.008l-.515-.713h1.735a8.758,8.758,0,0,1,1.776,4.082A10.923,10.923,0,0,1,280.487,1213.845Zm-1.652,2.4H277.9v-1.2h.931Zm2.782,0h-.861v-1.2h.861Z" transform="translate(-276.797 -1207.906)" fill="#80a921"/>
        </g>
        <g id="Group_23" data-name="Group 23" transform="translate(29.9 7.332)">
          <path id="Path_24" data-name="Path 24" d="M291.644,1213.205l-.016,1.2h-6.856v5.921a3.779,3.779,0,0,0,.365,1.9,1.715,1.715,0,0,0,1.452.713,1.837,1.837,0,0,0,1.316-.532,4.02,4.02,0,0,0,.97-1.272,3.7,3.7,0,0,0,.416-1.645v-3.782l1.684.722V1226.7a3.829,3.829,0,0,1-1.4,3.06,5.154,5.154,0,0,1-7.231-.883,2.718,2.718,0,0,1-.5-1.374,2.57,2.57,0,0,1,1.14-2.106,3.421,3.421,0,0,1,2.077-.753l1.032,1.707a6.228,6.228,0,0,0-2.507.73,1.179,1.179,0,0,0-.726,1.035,2.26,2.26,0,0,0,1.117,1.613,2.727,2.727,0,0,0,1.579.42,3.717,3.717,0,0,0,3.355-1.776,3.571,3.571,0,0,0,.538-1.966v-4.079q-.529,1.063-2.824,1.063a3.214,3.214,0,0,1-2.924-1.626,3.364,3.364,0,0,1-.489-1.805v-5.552h-1.156v-1.2Z" transform="translate(-281.841 -1213.205)" fill="#80a921"/>
        </g>
        <g id="Group_24" data-name="Group 24" transform="translate(54.367 0.522)">
          <path id="Path_25" data-name="Path 25" d="M310.772,1216.164H304.2v3.028a4.694,4.694,0,0,1,1.645-1.536,2.3,2.3,0,0,1,.951-.19q1.991,0,2.973,2.407a5.426,5.426,0,0,1,.432,2.073,5.151,5.151,0,0,1-1.246,3.37,8.017,8.017,0,0,1-.62.693l-1.335-.982c.338-.435.719-.969,1.149-1.6a4.773,4.773,0,0,0,.73-2.707,3.174,3.174,0,0,0-.357-1.625,1.244,1.244,0,0,0-1.173-.742,2.6,2.6,0,0,0-1.5.654,4.889,4.889,0,0,0-1.186,1.341,3.114,3.114,0,0,0-.515,1.627v3.98l-1.524-1v-8.783h-.893v-1.2h.893a9.6,9.6,0,0,0-1.245-5.025,6.662,6.662,0,0,0-1.384-1.762l1.645-.023q1.368.926,2.174,3.977a11.165,11.165,0,0,1,.381,2.833h6.569Z" transform="translate(-300.002 -1208.15)" fill="#80a921"/>
        </g>
        <g id="Group_25" data-name="Group 25" transform="translate(67.479 7.332)">
          <path id="Path_26" data-name="Path 26" d="M318.423,1214.408H316.2v1.982a1.383,1.383,0,0,1,.554.27v1.19a5.007,5.007,0,0,0-2.02-.424,3.634,3.634,0,0,0-1.466.313,1.325,1.325,0,0,0-.954,1.18q-.012.8,1.85.8c.028,0,.2-.011.528-.028l.489-.031v.921c-.738.027-1.2.05-1.382.073-1.3.137-1.947.6-1.947,1.381a1.136,1.136,0,0,0,.676,1.025,2.344,2.344,0,0,0,1.14.29q2.645,0,4.28-2.889V1223a5.211,5.211,0,0,1-3.312,1.094,5.683,5.683,0,0,1-3.616-1.194,1.682,1.682,0,0,1-.74-1.335,1.776,1.776,0,0,1,.521-1.276,4.937,4.937,0,0,1,1.049-.761l-.538-.381a1.069,1.069,0,0,1-.48-.914q0-1.247,1.521-1.788a7.769,7.769,0,0,1,2.6-.409v-1.628h-5.217v-1.2h8.688Z" transform="translate(-309.734 -1213.205)" fill="#80a921"/>
        </g>
        <g id="Group_26" data-name="Group 26" transform="translate(78.531 7.332)">
          <path id="Path_27" data-name="Path 27" d="M326.17,1214.408h-8.233v-1.2h8.233Zm-.678,3.609a2.253,2.253,0,0,1-.579,1.332,3.623,3.623,0,0,1-1.023.946l-1.225-1.708a1.878,1.878,0,0,0,1.052-.5,1.5,1.5,0,0,0,.57-1.145.69.69,0,0,0-.358-.579,1.051,1.051,0,0,0-.612-.224,1.979,1.979,0,0,0-1.342.745,4.684,4.684,0,0,0-1.459,3.329v4.252l-1.563-1v-7.419h1.563v.763a3.906,3.906,0,0,1,1.456-.906,2.806,2.806,0,0,1,1.109-.229,2.444,2.444,0,0,1,2.01,1.111A2.017,2.017,0,0,1,325.493,1218.018Z" transform="translate(-317.937 -1213.205)" fill="#80a921"/>
        </g>
        <g id="Group_27" data-name="Group 27" transform="translate(87.708)">
          <path id="Path_28" data-name="Path 28" d="M335.138,1216.3H328.95v3.75a7.6,7.6,0,0,1,1.61-1.784,2.03,2.03,0,0,1,1.27-.513,2.608,2.608,0,0,1,2.168,1.215,4.049,4.049,0,0,1,.806,2.417,5.031,5.031,0,0,1-1.183,3.052,3.183,3.183,0,0,1-2.391,1.55,1.923,1.923,0,0,1-1.3-.682q-.212-.21-1.041-1.254v2.057l-1.419-.754V1216.3H326.13v-1.2h1.336a10.847,10.847,0,0,0-1.082-4.675,10.719,10.719,0,0,0-1.636-2.656h1.781a7.885,7.885,0,0,1,1.411,2.135,12.262,12.262,0,0,1,1.009,5.2h6.188Zm-1.237,6.117a3.374,3.374,0,0,0-.847-2.017,2.74,2.74,0,0,0-2.191-1.213,1.874,1.874,0,0,0-1.466.954,1.2,1.2,0,0,0-.271.571,4.121,4.121,0,0,0,.6,1.925q1.271,2.305,2.62,2.3c.571,0,1.016-.453,1.335-1.351A3.483,3.483,0,0,0,333.9,1222.415Z" transform="translate(-324.749 -1207.763)" fill="#80a921"/>
        </g>
      </g>
      <g id="Group_30" data-name="Group 30" transform="translate(54.466 7.315)">
        <g id="Group_29" data-name="Group 29">
          <rect id="Rectangle_6" data-name="Rectangle 6" width="45.542" height="1.467" fill="#80a921"/>
        </g>
      </g>
      <g id="Group_32" data-name="Group 32" transform="translate(0 7.315)">
        <g id="Group_31" data-name="Group 31">
          <rect id="Rectangle_7" data-name="Rectangle 7" width="42.827" height="1.467" fill="#80a921"/>
        </g>
      </g>
    </g>
  </g>
</svg>
