<?xml version="1.0" standalone="no"?>
<!DOCTYPE svg PUBLIC "-//W3C//DTD SVG 20010904//EN"
 "http://www.w3.org/TR/2001/REC-SVG-20010904/DTD/svg10.dtd">
<svg version="1.0" xmlns="http://www.w3.org/2000/svg"
 width="263.000000pt" height="263.000000pt" viewBox="0 0 263.000000 263.000000"
 preserveAspectRatio="xMidYMid meet">
<metadata>
Created by potrace 1.11, written by Peter Selinger 2001-2013
</metadata>
<g transform="translate(0.000000,263.000000) scale(0.100000,-0.100000)"
fill="#000000" stroke="none">
<path d="M1264 2207 c-17 -23 -50 -73 -73 -110 l-43 -68 -52 44 c-28 24 -80
65 -115 91 -57 41 -66 45 -74 30 -11 -20 -35 -105 -43 -154 -8 -50 -17 -54
-60 -32 -22 11 -74 34 -118 52 -88 37 -95 34 -90 -33 9 -120 16 -176 24 -212
12 -49 12 -68 2 -61 -4 2 -28 7 -52 10 -25 3 -55 8 -66 10 -21 4 -148 16 -236
21 -60 3 -61 -4 -7 -92 230 -376 543 -567 894 -545 95 6 127 6 345 2 122 -3
144 0 224 24 198 60 368 175 504 343 51 62 173 254 167 263 -8 13 -206 -1
-342 -25 -40 -6 -73 -9 -73 -6 0 3 5 24 10 46 18 76 32 285 19 285 -12 0 -144
-54 -197 -80 -47 -23 -54 -22 -59 13 -3 18 -21 86 -28 107 -1 3 -6 20 -10 38
-4 18 -11 34 -15 37 -7 5 -134 -87 -200 -144 -19 -17 -37 -27 -40 -23 -4 4
-37 53 -74 110 -38 56 -73 102 -80 102 -6 -1 -25 -20 -42 -43z"/>
<path d="M2341 980 c15 -30 30 -72 34 -92 l6 -38 -168 -1 c-92 0 -238 0 -323
0 -85 0 -198 1 -251 1 l-96 0 -6 45 c-8 58 -41 121 -66 128 -31 8 -32 -2 -6
-42 13 -20 27 -57 30 -83 6 -42 5 -48 -11 -49 -45 -3 -54 -4 -54 -11 0 -5 0
-12 0 -18 0 -5 16 -10 35 -10 39 0 36 13 37 -146 0 -68 3 -82 19 -92 21 -13
19 -18 22 68 2 54 27 97 64 111 55 21 76 -53 37 -126 -19 -37 -21 -45 -8 -56
20 -16 41 3 55 51 15 50 5 102 -28 134 -31 31 -69 33 -98 6 l-22 -21 1 33 1
33 183 2 c169 2 182 1 182 -15 0 -13 -12 -21 -41 -28 -52 -11 -78 -44 -55 -67
13 -13 13 -17 -4 -32 -27 -25 -25 -50 6 -74 54 -42 148 -38 171 8 21 42 4 50
-31 15 -23 -23 -43 -34 -63 -34 -64 0 -84 53 -26 66 45 9 53 13 53 22 0 5 -14
9 -31 10 -45 1 -55 16 -29 39 16 16 30 19 62 16 39 -5 41 -4 34 18 -17 57 -29
54 204 54 l215 0 1 -114 c1 -84 5 -115 15 -122 23 -14 31 -10 24 11 -8 26 3
25 31 -1 47 -44 119 18 119 104 0 41 -4 53 -28 73 -32 27 -57 25 -93 -8 -25
-22 -33 -12 -26 34 4 29 4 29 76 27 120 -2 126 -1 126 21 0 18 -8 20 -101 22
l-102 3 -4 40 c-2 22 -15 64 -29 92 -20 42 -30 52 -48 51 l-22 -2 27 -56z
m160 -250 c55 -30 57 -140 2 -140 -22 0 -70 55 -76 87 -9 48 30 76 74 53z"/>
<path d="M25 1020 c-3 -6 3 -22 14 -36 11 -14 23 -42 27 -63 4 -20 8 -44 10
-53 3 -17 -22 -24 -63 -19 -7 1 -13 -7 -13 -19 0 -17 6 -20 39 -20 l39 0 0
-97 c0 -133 -1 -131 22 -143 19 -10 20 -8 18 48 -2 65 13 99 57 128 24 16 27
15 45 -1 28 -26 26 -83 -5 -128 -23 -35 -23 -37 -5 -47 15 -8 23 -5 39 16 21
27 23 33 24 69 1 49 -5 65 -32 94 -34 36 -68 40 -98 11 -24 -21 -34 -10 -24
27 6 21 10 21 191 20 158 -2 185 -4 188 -18 2 -12 -5 -14 -33 -11 -62 7 -111
-58 -93 -124 10 -37 70 -94 99 -94 27 0 78 30 84 50 12 42 12 69 -3 100 -18
41 -22 82 -7 92 5 4 36 8 68 8 l57 0 1 -32 c0 -18 0 -68 0 -112 -2 -73 8 -106
30 -106 5 0 9 56 9 125 l0 125 60 0 c33 0 59 -3 59 -7 -1 -5 -1 -45 0 -89 1
-74 3 -84 27 -108 29 -28 79 -35 116 -15 20 11 20 9 17 -63 -5 -82 -16 -101
-69 -120 -56 -19 -122 29 -90 67 6 7 25 17 41 20 32 7 34 12 16 36 -11 15 -17
15 -45 3 -45 -19 -59 -52 -37 -93 34 -66 142 -75 200 -17 18 18 20 36 23 175
3 139 2 157 -14 168 -28 20 -30 17 -26 -44 3 -48 -1 -64 -20 -93 -24 -36 -52
-47 -78 -31 -15 10 -28 106 -22 173 l3 37 52 0 c29 -1 86 -1 129 0 70 1 76 3
71 20 -5 18 -17 19 -196 20 -106 0 -197 1 -203 1 -6 0 -14 24 -17 53 -7 73
-34 127 -63 127 l-23 0 24 -49 c15 -28 25 -66 25 -90 0 -41 0 -41 -37 -41
-123 -1 -350 -1 -425 -1 l-86 1 -11 50 c-6 28 -18 64 -26 80 -17 34 -50 56
-60 40z m493 -282 c31 -31 6 -107 -44 -134 -40 -22 -67 -12 -72 26 -11 73 73
151 116 108z"/>
<path d="M2108 772 c-16 -3 -18 -16 -18 -96 0 -58 4 -96 12 -104 25 -25 33
-11 34 58 0 54 5 76 20 97 28 38 51 50 65 36 14 -14 2 -53 -17 -53 -12 0 -12
-4 2 -25 14 -21 19 -23 31 -13 62 51 6 129 -71 100 -16 -7 -32 -8 -35 -4 -4 4
-14 6 -23 4z"/>
</g>
</svg>
